  0
SECTION
  2
HEADER
  9
$ACADVER
  1
AC1009
  9
$EXTMIN
 10
0.0
 20
0.0
 30
0.0
  9
$EXTMAX
 10
1000.0
 20
1000.0
 30
0.0
  9
$FILLMODE
 70
 0
  9
$SPLFRAME
 70
 1
  0
ENDSEC
  0
SECTION
  2
TABLES
  0
TABLE
  2
LAYER
 70
1
  0
LAYER
  2
0
 70
     0
 62
     7
  6
CONTINUOUS
  0
ENDTAB
  0
ENDSEC
  0
SECTION
  2
ENTITIES
  0
LINE
  8
0
 62
     0
 10
403.07
 20
137.093
 30
0.0
 11
403.267
 21
137.086
 31
0.0
  0
LINE
  8
0
 62
     0
 10
403.267
 20
137.086
 30
0.0
 11
403.461
 21
137.062
 31
0.0
  0
LINE
  8
0
 62
     0
 10
403.461
 20
137.062
 30
0.0
 11
403.652
 21
137.024
 31
0.0
  0
LINE
  8
0
 62
     0
 10
403.652
 20
137.024
 30
0.0
 11
403.842
 21
136.972
 31
0.0
  0
LINE
  8
0
 62
     0
 10
403.842
 20
136.972
 30
0.0
 11
404.026
 21
136.902
 31
0.0
  0
LINE
  8
0
 62
     0
 10
404.026
 20
136.902
 30
0.0
 11
404.206
 21
136.821
 31
0.0
  0
LINE
  8
0
 62
     0
 10
404.206
 20
136.821
 30
0.0
 11
404.379
 21
136.725
 31
0.0
  0
LINE
  8
0
 62
     0
 10
404.379
 20
136.725
 30
0.0
 11
404.541
 21
136.616
 31
0.0
  0
LINE
  8
0
 62
     0
 10
404.541
 20
136.616
 30
0.0
 11
404.693
 21
136.495
 31
0.0
  0
LINE
  8
0
 62
     0
 10
404.693
 20
136.495
 30
0.0
 11
404.837
 21
136.361
 31
0.0
  0
LINE
  8
0
 62
     0
 10
404.837
 20
136.361
 30
0.0
 11
404.971
 21
136.218
 31
0.0
  0
LINE
  8
0
 62
     0
 10
404.971
 20
136.218
 30
0.0
 11
405.091
 21
136.063
 31
0.0
  0
LINE
  8
0
 62
     0
 10
405.091
 20
136.063
 30
0.0
 11
405.201
 21
135.901
 31
0.0
  0
LINE
  8
0
 62
     0
 10
405.201
 20
135.901
 30
0.0
 11
405.299
 21
135.728
 31
0.0
  0
LINE
  8
0
 62
     0
 10
405.299
 20
135.728
 30
0.0
 11
405.38
 21
135.551
 31
0.0
  0
LINE
  8
0
 62
     0
 10
405.38
 20
135.551
 30
0.0
 11
405.448
 21
135.366
 31
0.0
  0
LINE
  8
0
 62
     0
 10
405.448
 20
135.366
 30
0.0
 11
405.5
 21
135.177
 31
0.0
  0
LINE
  8
0
 62
     0
 10
405.5
 20
135.177
 30
0.0
 11
405.539
 21
134.986
 31
0.0
  0
LINE
  8
0
 62
     0
 10
405.539
 20
134.986
 30
0.0
 11
405.564
 21
134.79
 31
0.0
  0
LINE
  8
0
 62
     0
 10
405.564
 20
134.79
 30
0.0
 11
405.571
 21
134.593
 31
0.0
  0
LINE
  8
0
 62
     0
 10
405.571
 20
134.593
 30
0.0
 11
405.571
 21
2.57969
 31
0.0
  0
LINE
  8
0
 62
     0
 10
405.571
 20
2.57969
 30
0.0
 11
405.564
 21
2.38401
 31
0.0
  0
LINE
  8
0
 62
     0
 10
405.564
 20
2.38401
 30
0.0
 11
405.539
 21
2.1897
 31
0.0
  0
LINE
  8
0
 62
     0
 10
405.539
 20
2.1897
 30
0.0
 11
405.5
 21
1.9954
 31
0.0
  0
LINE
  8
0
 62
     0
 10
405.5
 20
1.9954
 30
0.0
 11
405.448
 21
1.80661
 31
0.0
  0
LINE
  8
0
 62
     0
 10
405.448
 20
1.80661
 30
0.0
 11
405.38
 21
1.62333
 31
0.0
  0
LINE
  8
0
 62
     0
 10
405.38
 20
1.62333
 30
0.0
 11
405.299
 21
1.44556
 31
0.0
  0
LINE
  8
0
 62
     0
 10
405.299
 20
1.44556
 30
0.0
 11
405.201
 21
1.27468
 31
0.0
  0
LINE
  8
0
 62
     0
 10
405.201
 20
1.27468
 30
0.0
 11
405.091
 21
1.1107
 31
0.0
  0
LINE
  8
0
 62
     0
 10
405.091
 20
1.1107
 30
0.0
 11
404.971
 21
0.956359
 31
0.0
  0
LINE
  8
0
 62
     0
 10
404.971
 20
0.956359
 30
0.0
 11
404.837
 21
0.811664
 31
0.0
  0
LINE
  8
0
 62
     0
 10
404.837
 20
0.811664
 30
0.0
 11
404.693
 21
0.679372
 31
0.0
  0
LINE
  8
0
 62
     0
 10
404.693
 20
0.679372
 30
0.0
 11
404.541
 21
0.556729
 31
0.0
  0
LINE
  8
0
 62
     0
 10
404.541
 20
0.556729
 30
0.0
 11
404.379
 21
0.447862
 31
0.0
  0
LINE
  8
0
 62
     0
 10
404.379
 20
0.447862
 30
0.0
 11
404.206
 21
0.3514
 31
0.0
  0
LINE
  8
0
 62
     0
 10
404.206
 20
0.3514
 30
0.0
 11
404.026
 21
0.270095
 31
0.0
  0
LINE
  8
0
 62
     0
 10
404.026
 20
0.270095
 30
0.0
 11
403.842
 21
0.202572
 31
0.0
  0
LINE
  8
0
 62
     0
 10
403.842
 20
0.202572
 30
0.0
 11
403.652
 21
0.148828
 31
0.0
  0
LINE
  8
0
 62
     0
 10
403.652
 20
0.148828
 30
0.0
 11
403.461
 21
0.111621
 31
0.0
  0
LINE
  8
0
 62
     0
 10
403.461
 20
0.111621
 30
0.0
 11
403.267
 21
0.0881944
 31
0.0
  0
LINE
  8
0
 62
     0
 10
403.267
 20
0.0881944
 30
0.0
 11
403.07
 21
0.0799264
 31
0.0
  0
LINE
  8
0
 62
     0
 10
403.07
 20
0.0799264
 30
0.0
 11
2.59485
 21
0.0799264
 31
0.0
  0
LINE
  8
0
 62
     0
 10
2.59485
 20
0.0799264
 30
0.0
 11
2.39779
 21
0.0881944
 31
0.0
  0
LINE
  8
0
 62
     0
 10
2.39779
 20
0.0881944
 30
0.0
 11
2.20211
 21
0.111621
 31
0.0
  0
LINE
  8
0
 62
     0
 10
2.20211
 20
0.111621
 30
0.0
 11
2.01056
 21
0.148828
 31
0.0
  0
LINE
  8
0
 62
     0
 10
2.01056
 20
0.148828
 30
0.0
 11
1.82177
 21
0.202572
 31
0.0
  0
LINE
  8
0
 62
     0
 10
1.82177
 20
0.202572
 30
0.0
 11
1.63711
 21
0.270095
 31
0.0
  0
LINE
  8
0
 62
     0
 10
1.63711
 20
0.270095
 30
0.0
 11
1.45934
 21
0.3514
 31
0.0
  0
LINE
  8
0
 62
     0
 10
1.45934
 20
0.3514
 30
0.0
 11
1.28709
 21
0.447862
 31
0.0
  0
LINE
  8
0
 62
     0
 10
1.28709
 20
0.447862
 30
0.0
 11
1.12448
 21
0.556729
 31
0.0
  0
LINE
  8
0
 62
     0
 10
1.12448
 20
0.556729
 30
0.0
 11
0.970139
 21
0.679372
 31
0.0
  0
LINE
  8
0
 62
     0
 10
0.970139
 20
0.679372
 30
0.0
 11
0.826823
 21
0.811664
 31
0.0
  0
LINE
  8
0
 62
     0
 10
0.826823
 20
0.811664
 30
0.0
 11
0.693152
 21
0.956359
 31
0.0
  0
LINE
  8
0
 62
     0
 10
0.693152
 20
0.956359
 30
0.0
 11
0.571885
 21
1.1107
 31
0.0
  0
LINE
  8
0
 62
     0
 10
0.571885
 20
1.1107
 30
0.0
 11
0.463021
 21
1.27468
 31
0.0
  0
LINE
  8
0
 62
     0
 10
0.463021
 20
1.27468
 30
0.0
 11
0.366557
 21
1.44556
 31
0.0
  0
LINE
  8
0
 62
     0
 10
0.366557
 20
1.44556
 30
0.0
 11
0.285254
 21
1.62333
 31
0.0
  0
LINE
  8
0
 62
     0
 10
0.285254
 20
1.62333
 30
0.0
 11
0.216352
 21
1.80661
 31
0.0
  0
LINE
  8
0
 62
     0
 10
0.216352
 20
1.80661
 30
0.0
 11
0.163987
 21
1.9954
 31
0.0
  0
LINE
  8
0
 62
     0
 10
0.163987
 20
1.9954
 30
0.0
 11
0.125402
 21
2.1897
 31
0.0
  0
LINE
  8
0
 62
     0
 10
0.125402
 20
2.1897
 30
0.0
 11
0.101975
 21
2.38401
 31
0.0
  0
LINE
  8
0
 62
     0
 10
0.101975
 20
2.38401
 30
0.0
 11
0.0937066
 21
2.57969
 31
0.0
  0
LINE
  8
0
 62
     0
 10
0.0937066
 20
2.57969
 30
0.0
 11
0.0950846
 21
134.593
 31
0.0
  0
LINE
  8
0
 62
     0
 10
0.0950846
 20
134.593
 30
0.0
 11
0.101975
 21
134.79
 31
0.0
  0
LINE
  8
0
 62
     0
 10
0.101975
 20
134.79
 30
0.0
 11
0.125402
 21
134.986
 31
0.0
  0
LINE
  8
0
 62
     0
 10
0.125402
 20
134.986
 30
0.0
 11
0.163987
 21
135.177
 31
0.0
  0
LINE
  8
0
 62
     0
 10
0.163987
 20
135.177
 30
0.0
 11
0.216352
 21
135.366
 31
0.0
  0
LINE
  8
0
 62
     0
 10
0.216352
 20
135.366
 30
0.0
 11
0.285254
 21
135.551
 31
0.0
  0
LINE
  8
0
 62
     0
 10
0.285254
 20
135.551
 30
0.0
 11
0.366557
 21
135.728
 31
0.0
  0
LINE
  8
0
 62
     0
 10
0.366557
 20
135.728
 30
0.0
 11
0.463021
 21
135.901
 31
0.0
  0
LINE
  8
0
 62
     0
 10
0.463021
 20
135.901
 30
0.0
 11
0.571885
 21
136.063
 31
0.0
  0
LINE
  8
0
 62
     0
 10
0.571885
 20
136.063
 30
0.0
 11
0.693152
 21
136.218
 31
0.0
  0
LINE
  8
0
 62
     0
 10
0.693152
 20
136.218
 30
0.0
 11
0.826823
 21
136.361
 31
0.0
  0
LINE
  8
0
 62
     0
 10
0.826823
 20
136.361
 30
0.0
 11
0.970139
 21
136.495
 31
0.0
  0
LINE
  8
0
 62
     0
 10
0.970139
 20
136.495
 30
0.0
 11
1.12448
 21
136.616
 31
0.0
  0
LINE
  8
0
 62
     0
 10
1.12448
 20
136.616
 30
0.0
 11
1.28709
 21
136.725
 31
0.0
  0
LINE
  8
0
 62
     0
 10
1.28709
 20
136.725
 30
0.0
 11
1.45934
 21
136.821
 31
0.0
  0
LINE
  8
0
 62
     0
 10
1.45934
 20
136.821
 30
0.0
 11
1.63711
 21
136.902
 31
0.0
  0
LINE
  8
0
 62
     0
 10
1.63711
 20
136.902
 30
0.0
 11
1.82177
 21
136.972
 31
0.0
  0
LINE
  8
0
 62
     0
 10
1.82177
 20
136.972
 30
0.0
 11
2.01056
 21
137.024
 31
0.0
  0
LINE
  8
0
 62
     0
 10
2.01056
 20
137.024
 30
0.0
 11
2.20211
 21
137.062
 31
0.0
  0
LINE
  8
0
 62
     0
 10
2.20211
 20
137.062
 30
0.0
 11
2.39779
 21
137.086
 31
0.0
  0
LINE
  8
0
 62
     0
 10
2.39779
 20
137.086
 30
0.0
 11
2.59485
 21
137.094
 31
0.0
  0
LINE
  8
0
 62
     0
 10
2.59485
 20
137.094
 30
0.0
 11
403.07
 21
137.093
 31
0.0
  0
LINE
  8
0
 62
     0
 10
400.068
 20
6.62563
 30
0.0
 11
399.616
 21
6.39547
 31
0.0
  0
LINE
  8
0
 62
     0
 10
399.616
 20
6.39547
 30
0.0
 11
399.256
 21
6.03444
 31
0.0
  0
LINE
  8
0
 62
     0
 10
399.256
 20
6.03444
 30
0.0
 11
399.023
 21
5.58243
 31
0.0
  0
LINE
  8
0
 62
     0
 10
399.023
 20
5.58243
 30
0.0
 11
398.946
 21
5.07944
 31
0.0
  0
LINE
  8
0
 62
     0
 10
398.946
 20
5.07944
 30
0.0
 11
399.023
 21
4.57786
 31
0.0
  0
LINE
  8
0
 62
     0
 10
399.023
 20
4.57786
 30
0.0
 11
399.256
 21
4.12447
 31
0.0
  0
LINE
  8
0
 62
     0
 10
399.256
 20
4.12447
 30
0.0
 11
399.616
 21
3.76481
 31
0.0
  0
LINE
  8
0
 62
     0
 10
399.616
 20
3.76481
 30
0.0
 11
400.068
 21
3.53466
 31
0.0
  0
LINE
  8
0
 62
     0
 10
400.068
 20
3.53466
 30
0.0
 11
400.572
 21
3.45474
 31
0.0
  0
LINE
  8
0
 62
     0
 10
400.572
 20
3.45474
 30
0.0
 11
401.073
 21
3.53466
 31
0.0
  0
LINE
  8
0
 62
     0
 10
401.073
 20
3.53466
 30
0.0
 11
401.525
 21
3.76481
 31
0.0
  0
LINE
  8
0
 62
     0
 10
401.525
 20
3.76481
 30
0.0
 11
401.884
 21
4.12447
 31
0.0
  0
LINE
  8
0
 62
     0
 10
401.884
 20
4.12447
 30
0.0
 11
402.117
 21
4.57786
 31
0.0
  0
LINE
  8
0
 62
     0
 10
402.117
 20
4.57786
 30
0.0
 11
402.195
 21
5.07944
 31
0.0
  0
LINE
  8
0
 62
     0
 10
402.195
 20
5.07944
 30
0.0
 11
402.117
 21
5.58243
 31
0.0
  0
LINE
  8
0
 62
     0
 10
402.117
 20
5.58243
 30
0.0
 11
401.884
 21
6.03444
 31
0.0
  0
LINE
  8
0
 62
     0
 10
401.884
 20
6.03444
 30
0.0
 11
401.525
 21
6.39547
 31
0.0
  0
LINE
  8
0
 62
     0
 10
401.525
 20
6.39547
 30
0.0
 11
401.073
 21
6.62563
 31
0.0
  0
LINE
  8
0
 62
     0
 10
401.073
 20
6.62563
 30
0.0
 11
400.572
 21
6.70553
 31
0.0
  0
LINE
  8
0
 62
     0
 10
400.572
 20
6.70553
 30
0.0
 11
400.068
 21
6.62563
 31
0.0
  0
LINE
  8
0
 62
     0
 10
202.329
 20
6.62563
 30
0.0
 11
201.877
 21
6.39547
 31
0.0
  0
LINE
  8
0
 62
     0
 10
201.877
 20
6.39547
 30
0.0
 11
201.517
 21
6.03444
 31
0.0
  0
LINE
  8
0
 62
     0
 10
201.517
 20
6.03444
 30
0.0
 11
201.287
 21
5.58243
 31
0.0
  0
LINE
  8
0
 62
     0
 10
201.287
 20
5.58243
 30
0.0
 11
201.208
 21
5.07944
 31
0.0
  0
LINE
  8
0
 62
     0
 10
201.208
 20
5.07944
 30
0.0
 11
201.287
 21
4.57786
 31
0.0
  0
LINE
  8
0
 62
     0
 10
201.287
 20
4.57786
 30
0.0
 11
201.517
 21
4.12447
 31
0.0
  0
LINE
  8
0
 62
     0
 10
201.517
 20
4.12447
 30
0.0
 11
201.877
 21
3.76481
 31
0.0
  0
LINE
  8
0
 62
     0
 10
201.877
 20
3.76481
 30
0.0
 11
202.329
 21
3.53466
 31
0.0
  0
LINE
  8
0
 62
     0
 10
202.329
 20
3.53466
 30
0.0
 11
202.832
 21
3.45474
 31
0.0
  0
LINE
  8
0
 62
     0
 10
202.832
 20
3.45474
 30
0.0
 11
203.335
 21
3.53466
 31
0.0
  0
LINE
  8
0
 62
     0
 10
203.335
 20
3.53466
 30
0.0
 11
203.788
 21
3.76481
 31
0.0
  0
LINE
  8
0
 62
     0
 10
203.788
 20
3.76481
 30
0.0
 11
204.147
 21
4.12447
 31
0.0
  0
LINE
  8
0
 62
     0
 10
204.147
 20
4.12447
 30
0.0
 11
204.378
 21
4.57786
 31
0.0
  0
LINE
  8
0
 62
     0
 10
204.378
 20
4.57786
 30
0.0
 11
204.458
 21
5.07944
 31
0.0
  0
LINE
  8
0
 62
     0
 10
204.458
 20
5.07944
 30
0.0
 11
204.378
 21
5.58243
 31
0.0
  0
LINE
  8
0
 62
     0
 10
204.378
 20
5.58243
 30
0.0
 11
204.147
 21
6.03444
 31
0.0
  0
LINE
  8
0
 62
     0
 10
204.147
 20
6.03444
 30
0.0
 11
203.788
 21
6.39547
 31
0.0
  0
LINE
  8
0
 62
     0
 10
203.788
 20
6.39547
 30
0.0
 11
203.335
 21
6.62563
 31
0.0
  0
LINE
  8
0
 62
     0
 10
203.335
 20
6.62563
 30
0.0
 11
202.832
 21
6.70553
 31
0.0
  0
LINE
  8
0
 62
     0
 10
202.832
 20
6.70553
 30
0.0
 11
202.329
 21
6.62563
 31
0.0
  0
LINE
  8
0
 62
     0
 10
4.59161
 20
6.62563
 30
0.0
 11
4.13826
 21
6.39547
 31
0.0
  0
LINE
  8
0
 62
     0
 10
4.13826
 20
6.39547
 30
0.0
 11
3.77994
 21
6.03444
 31
0.0
  0
LINE
  8
0
 62
     0
 10
3.77994
 20
6.03444
 30
0.0
 11
3.54845
 21
5.58243
 31
0.0
  0
LINE
  8
0
 62
     0
 10
3.54845
 20
5.58243
 30
0.0
 11
3.46852
 21
5.07944
 31
0.0
  0
LINE
  8
0
 62
     0
 10
3.46852
 20
5.07944
 30
0.0
 11
3.54845
 21
4.57786
 31
0.0
  0
LINE
  8
0
 62
     0
 10
3.54845
 20
4.57786
 30
0.0
 11
3.77994
 21
4.12447
 31
0.0
  0
LINE
  8
0
 62
     0
 10
3.77994
 20
4.12447
 30
0.0
 11
4.13826
 21
3.76481
 31
0.0
  0
LINE
  8
0
 62
     0
 10
4.13826
 20
3.76481
 30
0.0
 11
4.59161
 21
3.53466
 31
0.0
  0
LINE
  8
0
 62
     0
 10
4.59161
 20
3.53466
 30
0.0
 11
5.0946
 21
3.45474
 31
0.0
  0
LINE
  8
0
 62
     0
 10
5.0946
 20
3.45474
 30
0.0
 11
5.59622
 21
3.53466
 31
0.0
  0
LINE
  8
0
 62
     0
 10
5.59622
 20
3.53466
 30
0.0
 11
6.04957
 21
3.76481
 31
0.0
  0
LINE
  8
0
 62
     0
 10
6.04957
 20
3.76481
 30
0.0
 11
6.40927
 21
4.12447
 31
0.0
  0
LINE
  8
0
 62
     0
 10
6.40927
 20
4.12447
 30
0.0
 11
6.63938
 21
4.57786
 31
0.0
  0
LINE
  8
0
 62
     0
 10
6.63938
 20
4.57786
 30
0.0
 11
6.71932
 21
5.07944
 31
0.0
  0
LINE
  8
0
 62
     0
 10
6.71932
 20
5.07944
 30
0.0
 11
6.63938
 21
5.58243
 31
0.0
  0
LINE
  8
0
 62
     0
 10
6.63938
 20
5.58243
 30
0.0
 11
6.40927
 21
6.03444
 31
0.0
  0
LINE
  8
0
 62
     0
 10
6.40927
 20
6.03444
 30
0.0
 11
6.04957
 21
6.39547
 31
0.0
  0
LINE
  8
0
 62
     0
 10
6.04957
 20
6.39547
 30
0.0
 11
5.59622
 21
6.62563
 31
0.0
  0
LINE
  8
0
 62
     0
 10
5.59622
 20
6.62563
 30
0.0
 11
5.0946
 21
6.70553
 31
0.0
  0
LINE
  8
0
 62
     0
 10
5.0946
 20
6.70553
 30
0.0
 11
4.59161
 21
6.62563
 31
0.0
  0
LINE
  8
0
 62
     0
 10
272.032
 20
33.6062
 30
0.0
 11
286.031
 21
33.6062
 31
0.0
  0
LINE
  8
0
 62
     0
 10
286.031
 20
33.6062
 30
0.0
 11
286.031
 21
19.6067
 31
0.0
  0
LINE
  8
0
 62
     0
 10
286.031
 20
19.6067
 30
0.0
 11
272.032
 21
19.6067
 31
0.0
  0
LINE
  8
0
 62
     0
 10
272.032
 20
19.6067
 30
0.0
 11
272.032
 21
33.6062
 31
0.0
  0
LINE
  8
0
 62
     0
 10
291.082
 20
33.6062
 30
0.0
 11
305.081
 21
33.6062
 31
0.0
  0
LINE
  8
0
 62
     0
 10
305.081
 20
33.6062
 30
0.0
 11
305.081
 21
19.6067
 31
0.0
  0
LINE
  8
0
 62
     0
 10
305.081
 20
19.6067
 30
0.0
 11
291.082
 21
19.6067
 31
0.0
  0
LINE
  8
0
 62
     0
 10
291.082
 20
19.6067
 30
0.0
 11
291.082
 21
33.6062
 31
0.0
  0
LINE
  8
0
 62
     0
 10
310.132
 20
33.6062
 30
0.0
 11
324.131
 21
33.6062
 31
0.0
  0
LINE
  8
0
 62
     0
 10
324.131
 20
33.6062
 30
0.0
 11
324.131
 21
19.6067
 31
0.0
  0
LINE
  8
0
 62
     0
 10
324.131
 20
19.6067
 30
0.0
 11
310.132
 21
19.6067
 31
0.0
  0
LINE
  8
0
 62
     0
 10
310.132
 20
19.6067
 30
0.0
 11
310.132
 21
33.6062
 31
0.0
  0
LINE
  8
0
 62
     0
 10
141.063
 20
38.3688
 30
0.0
 11
141.063
 21
33.6682
 31
0.0
  0
LINE
  8
0
 62
     0
 10
141.063
 20
33.6682
 30
0.0
 11
101.437
 21
33.6682
 31
0.0
  0
LINE
  8
0
 62
     0
 10
101.437
 20
33.6682
 30
0.0
 11
101.437
 21
36.8984
 31
0.0
  0
LINE
  8
0
 62
     0
 10
101.437
 20
36.8984
 30
0.0
 11
94.6877
 21
36.8984
 31
0.0
  0
LINE
  8
0
 62
     0
 10
94.6877
 20
36.8984
 30
0.0
 11
94.6877
 21
33.6682
 31
0.0
  0
LINE
  8
0
 62
     0
 10
94.6877
 20
33.6682
 30
0.0
 11
93.8622
 21
33.6682
 31
0.0
  0
LINE
  8
0
 62
     0
 10
93.8622
 20
33.6682
 30
0.0
 11
93.8622
 21
30.8681
 31
0.0
  0
LINE
  8
0
 62
     0
 10
93.8622
 20
30.8681
 30
0.0
 11
94.6877
 21
30.8681
 31
0.0
  0
LINE
  8
0
 62
     0
 10
94.6877
 20
30.8681
 30
0.0
 11
94.6877
 21
24.5994
 31
0.0
  0
LINE
  8
0
 62
     0
 10
94.6877
 20
24.5994
 30
0.0
 11
96.4131
 21
24.5994
 31
0.0
  0
LINE
  8
0
 62
     0
 10
96.4131
 20
24.5994
 30
0.0
 11
96.4131
 21
23.3977
 31
0.0
  0
LINE
  8
0
 62
     0
 10
96.4131
 20
23.3977
 30
0.0
 11
99.7119
 21
23.3977
 31
0.0
  0
LINE
  8
0
 62
     0
 10
99.7119
 20
23.3977
 30
0.0
 11
99.7119
 21
24.5994
 31
0.0
  0
LINE
  8
0
 62
     0
 10
99.7119
 20
24.5994
 30
0.0
 11
101.437
 21
24.5994
 31
0.0
  0
LINE
  8
0
 62
     0
 10
101.437
 20
24.5994
 30
0.0
 11
101.437
 21
29.0697
 31
0.0
  0
LINE
  8
0
 62
     0
 10
101.437
 20
29.0697
 30
0.0
 11
141.063
 21
29.0697
 31
0.0
  0
LINE
  8
0
 62
     0
 10
141.063
 20
29.0697
 30
0.0
 11
141.063
 21
24.3678
 31
0.0
  0
LINE
  8
0
 62
     0
 10
141.063
 20
24.3678
 30
0.0
 11
155.062
 21
24.3678
 31
0.0
  0
LINE
  8
0
 62
     0
 10
155.062
 20
24.3678
 30
0.0
 11
155.062
 21
29.0697
 31
0.0
  0
LINE
  8
0
 62
     0
 10
155.062
 20
29.0697
 30
0.0
 11
194.688
 21
29.0697
 31
0.0
  0
LINE
  8
0
 62
     0
 10
194.688
 20
29.0697
 30
0.0
 11
194.688
 21
24.5994
 31
0.0
  0
LINE
  8
0
 62
     0
 10
194.688
 20
24.5994
 30
0.0
 11
196.413
 21
24.5994
 31
0.0
  0
LINE
  8
0
 62
     0
 10
196.413
 20
24.5994
 30
0.0
 11
196.413
 21
23.3977
 31
0.0
  0
LINE
  8
0
 62
     0
 10
196.413
 20
23.3977
 30
0.0
 11
199.712
 21
23.3977
 31
0.0
  0
LINE
  8
0
 62
     0
 10
199.712
 20
23.3977
 30
0.0
 11
199.712
 21
24.5994
 31
0.0
  0
LINE
  8
0
 62
     0
 10
199.712
 20
24.5994
 30
0.0
 11
201.438
 21
24.5994
 31
0.0
  0
LINE
  8
0
 62
     0
 10
201.438
 20
24.5994
 30
0.0
 11
201.438
 21
30.8681
 31
0.0
  0
LINE
  8
0
 62
     0
 10
201.438
 20
30.8681
 30
0.0
 11
202.263
 21
30.8681
 31
0.0
  0
LINE
  8
0
 62
     0
 10
202.263
 20
30.8681
 30
0.0
 11
202.263
 21
33.6682
 31
0.0
  0
LINE
  8
0
 62
     0
 10
202.263
 20
33.6682
 30
0.0
 11
201.438
 21
33.6682
 31
0.0
  0
LINE
  8
0
 62
     0
 10
201.438
 20
33.6682
 30
0.0
 11
201.438
 21
36.8984
 31
0.0
  0
LINE
  8
0
 62
     0
 10
201.438
 20
36.8984
 30
0.0
 11
194.688
 21
36.8984
 31
0.0
  0
LINE
  8
0
 62
     0
 10
194.688
 20
36.8984
 30
0.0
 11
194.688
 21
33.6682
 31
0.0
  0
LINE
  8
0
 62
     0
 10
194.688
 20
33.6682
 30
0.0
 11
155.062
 21
33.6682
 31
0.0
  0
LINE
  8
0
 62
     0
 10
155.062
 20
33.6682
 30
0.0
 11
155.062
 21
38.3688
 31
0.0
  0
LINE
  8
0
 62
     0
 10
155.062
 20
38.3688
 30
0.0
 11
141.063
 21
38.3688
 31
0.0
  0
LINE
  8
0
 62
     0
 10
22.0004
 20
38.3688
 30
0.0
 11
36.0013
 21
38.3688
 31
0.0
  0
LINE
  8
0
 62
     0
 10
36.0013
 20
38.3688
 30
0.0
 11
36.0013
 21
24.3678
 31
0.0
  0
LINE
  8
0
 62
     0
 10
36.0013
 20
24.3678
 30
0.0
 11
22.0004
 21
24.3678
 31
0.0
  0
LINE
  8
0
 62
     0
 10
22.0004
 20
24.3678
 30
0.0
 11
22.0004
 21
38.3688
 31
0.0
  0
LINE
  8
0
 62
     0
 10
45.8128
 20
38.3688
 30
0.0
 11
59.8124
 21
38.3688
 31
0.0
  0
LINE
  8
0
 62
     0
 10
59.8124
 20
38.3688
 30
0.0
 11
59.8124
 21
24.3678
 31
0.0
  0
LINE
  8
0
 62
     0
 10
59.8124
 20
24.3678
 30
0.0
 11
45.8128
 21
24.3678
 31
0.0
  0
LINE
  8
0
 62
     0
 10
45.8128
 20
24.3678
 30
0.0
 11
45.8128
 21
38.3688
 31
0.0
  0
LINE
  8
0
 62
     0
 10
69.6253
 20
38.3688
 30
0.0
 11
83.6263
 21
38.3688
 31
0.0
  0
LINE
  8
0
 62
     0
 10
83.6263
 20
38.3688
 30
0.0
 11
83.6263
 21
24.3678
 31
0.0
  0
LINE
  8
0
 62
     0
 10
83.6263
 20
24.3678
 30
0.0
 11
69.6253
 21
24.3678
 31
0.0
  0
LINE
  8
0
 62
     0
 10
69.6253
 20
24.3678
 30
0.0
 11
69.6253
 21
38.3688
 31
0.0
  0
LINE
  8
0
 62
     0
 10
214.882
 20
38.3688
 30
0.0
 11
228.881
 21
38.3688
 31
0.0
  0
LINE
  8
0
 62
     0
 10
228.881
 20
38.3688
 30
0.0
 11
228.881
 21
24.3678
 31
0.0
  0
LINE
  8
0
 62
     0
 10
228.881
 20
24.3678
 30
0.0
 11
214.882
 21
24.3678
 31
0.0
  0
LINE
  8
0
 62
     0
 10
214.882
 20
24.3678
 30
0.0
 11
214.882
 21
38.3688
 31
0.0
  0
LINE
  8
0
 62
     0
 10
243.457
 20
38.3688
 30
0.0
 11
257.456
 21
38.3688
 31
0.0
  0
LINE
  8
0
 62
     0
 10
257.456
 20
38.3688
 30
0.0
 11
257.456
 21
24.3678
 31
0.0
  0
LINE
  8
0
 62
     0
 10
257.456
 20
24.3678
 30
0.0
 11
243.457
 21
24.3678
 31
0.0
  0
LINE
  8
0
 62
     0
 10
243.457
 20
24.3678
 30
0.0
 11
243.457
 21
38.3688
 31
0.0
  0
LINE
  8
0
 62
     0
 10
333.944
 20
38.3688
 30
0.0
 11
347.945
 21
38.3688
 31
0.0
  0
LINE
  8
0
 62
     0
 10
347.945
 20
38.3688
 30
0.0
 11
347.945
 21
24.3678
 31
0.0
  0
LINE
  8
0
 62
     0
 10
347.945
 20
24.3678
 30
0.0
 11
333.944
 21
24.3678
 31
0.0
  0
LINE
  8
0
 62
     0
 10
333.944
 20
24.3678
 30
0.0
 11
333.944
 21
38.3688
 31
0.0
  0
LINE
  8
0
 62
     0
 10
352.993
 20
38.3688
 30
0.0
 11
366.995
 21
38.3688
 31
0.0
  0
LINE
  8
0
 62
     0
 10
366.995
 20
38.3688
 30
0.0
 11
366.995
 21
24.3678
 31
0.0
  0
LINE
  8
0
 62
     0
 10
366.995
 20
24.3678
 30
0.0
 11
352.993
 21
24.3678
 31
0.0
  0
LINE
  8
0
 62
     0
 10
352.993
 20
24.3678
 30
0.0
 11
352.993
 21
38.3688
 31
0.0
  0
LINE
  8
0
 62
     0
 10
378.545
 20
56.993
 30
0.0
 11
378.545
 21
56.1675
 31
0.0
  0
LINE
  8
0
 62
     0
 10
378.545
 20
56.1675
 30
0.0
 11
372.276
 21
56.1675
 31
0.0
  0
LINE
  8
0
 62
     0
 10
372.276
 20
56.1675
 30
0.0
 11
372.276
 21
54.4435
 31
0.0
  0
LINE
  8
0
 62
     0
 10
372.276
 20
54.4435
 30
0.0
 11
371.076
 21
54.4435
 31
0.0
  0
LINE
  8
0
 62
     0
 10
371.076
 20
54.4435
 30
0.0
 11
371.076
 21
51.1433
 31
0.0
  0
LINE
  8
0
 62
     0
 10
371.076
 20
51.1433
 30
0.0
 11
372.276
 21
51.1433
 31
0.0
  0
LINE
  8
0
 62
     0
 10
372.276
 20
51.1433
 30
0.0
 11
372.276
 21
49.4178
 31
0.0
  0
LINE
  8
0
 62
     0
 10
372.276
 20
49.4178
 30
0.0
 11
376.745
 21
49.4178
 31
0.0
  0
LINE
  8
0
 62
     0
 10
376.745
 20
49.4178
 30
0.0
 11
376.745
 21
47.8938
 31
0.0
  0
LINE
  8
0
 62
     0
 10
376.745
 20
47.8938
 30
0.0
 11
372.043
 21
47.8938
 31
0.0
  0
LINE
  8
0
 62
     0
 10
372.043
 20
47.8938
 30
0.0
 11
372.043
 21
33.8928
 31
0.0
  0
LINE
  8
0
 62
     0
 10
372.043
 20
33.8928
 30
0.0
 11
376.745
 21
33.8928
 31
0.0
  0
LINE
  8
0
 62
     0
 10
376.745
 20
33.8928
 30
0.0
 11
376.745
 21
32.3687
 31
0.0
  0
LINE
  8
0
 62
     0
 10
376.745
 20
32.3687
 30
0.0
 11
372.276
 21
32.3687
 31
0.0
  0
LINE
  8
0
 62
     0
 10
372.276
 20
32.3687
 30
0.0
 11
372.276
 21
30.6434
 31
0.0
  0
LINE
  8
0
 62
     0
 10
372.276
 20
30.6434
 30
0.0
 11
371.076
 21
30.6434
 31
0.0
  0
LINE
  8
0
 62
     0
 10
371.076
 20
30.6434
 30
0.0
 11
371.076
 21
27.343
 31
0.0
  0
LINE
  8
0
 62
     0
 10
371.076
 20
27.343
 30
0.0
 11
372.276
 21
27.343
 31
0.0
  0
LINE
  8
0
 62
     0
 10
372.276
 20
27.343
 30
0.0
 11
372.276
 21
25.6177
 31
0.0
  0
LINE
  8
0
 62
     0
 10
372.276
 20
25.6177
 30
0.0
 11
378.545
 21
25.6177
 31
0.0
  0
LINE
  8
0
 62
     0
 10
378.545
 20
25.6177
 30
0.0
 11
378.545
 21
24.7937
 31
0.0
  0
LINE
  8
0
 62
     0
 10
378.545
 20
24.7937
 30
0.0
 11
381.346
 21
24.7937
 31
0.0
  0
LINE
  8
0
 62
     0
 10
381.346
 20
24.7937
 30
0.0
 11
381.346
 21
25.6177
 31
0.0
  0
LINE
  8
0
 62
     0
 10
381.346
 20
25.6177
 30
0.0
 11
384.574
 21
25.6177
 31
0.0
  0
LINE
  8
0
 62
     0
 10
384.574
 20
25.6177
 30
0.0
 11
384.574
 21
32.3687
 31
0.0
  0
LINE
  8
0
 62
     0
 10
384.574
 20
32.3687
 30
0.0
 11
381.346
 21
32.3687
 31
0.0
  0
LINE
  8
0
 62
     0
 10
381.346
 20
32.3687
 30
0.0
 11
381.346
 21
33.8928
 31
0.0
  0
LINE
  8
0
 62
     0
 10
381.346
 20
33.8928
 30
0.0
 11
386.045
 21
33.8928
 31
0.0
  0
LINE
  8
0
 62
     0
 10
386.045
 20
33.8928
 30
0.0
 11
386.045
 21
47.8938
 31
0.0
  0
LINE
  8
0
 62
     0
 10
386.045
 20
47.8938
 30
0.0
 11
381.346
 21
47.8938
 31
0.0
  0
LINE
  8
0
 62
     0
 10
381.346
 20
47.8938
 30
0.0
 11
381.346
 21
49.4178
 31
0.0
  0
LINE
  8
0
 62
     0
 10
381.346
 20
49.4178
 30
0.0
 11
384.574
 21
49.4178
 31
0.0
  0
LINE
  8
0
 62
     0
 10
384.574
 20
49.4178
 30
0.0
 11
384.574
 21
56.1675
 31
0.0
  0
LINE
  8
0
 62
     0
 10
384.574
 20
56.1675
 30
0.0
 11
381.346
 21
56.1675
 31
0.0
  0
LINE
  8
0
 62
     0
 10
381.346
 20
56.1675
 30
0.0
 11
381.346
 21
56.993
 31
0.0
  0
LINE
  8
0
 62
     0
 10
381.346
 20
56.993
 30
0.0
 11
378.545
 21
56.993
 31
0.0
  0
LINE
  8
0
 62
     0
 10
291.082
 20
52.6563
 30
0.0
 11
305.081
 21
52.6563
 31
0.0
  0
LINE
  8
0
 62
     0
 10
305.081
 20
52.6563
 30
0.0
 11
305.081
 21
38.6567
 31
0.0
  0
LINE
  8
0
 62
     0
 10
305.081
 20
38.6567
 30
0.0
 11
291.082
 21
38.6567
 31
0.0
  0
LINE
  8
0
 62
     0
 10
291.082
 20
38.6567
 30
0.0
 11
291.082
 21
52.6563
 31
0.0
  0
LINE
  8
0
 62
     0
 10
22.0004
 20
57.4188
 30
0.0
 11
36.0013
 21
57.4188
 31
0.0
  0
LINE
  8
0
 62
     0
 10
36.0013
 20
57.4188
 30
0.0
 11
36.0013
 21
43.4178
 31
0.0
  0
LINE
  8
0
 62
     0
 10
36.0013
 20
43.4178
 30
0.0
 11
22.0004
 21
43.4178
 31
0.0
  0
LINE
  8
0
 62
     0
 10
22.0004
 20
43.4178
 30
0.0
 11
22.0004
 21
57.4188
 31
0.0
  0
LINE
  8
0
 62
     0
 10
43.4315
 20
57.4188
 30
0.0
 11
57.4312
 21
57.4188
 31
0.0
  0
LINE
  8
0
 62
     0
 10
57.4312
 20
57.4188
 30
0.0
 11
57.4312
 21
43.4178
 31
0.0
  0
LINE
  8
0
 62
     0
 10
57.4312
 20
43.4178
 30
0.0
 11
43.4315
 21
43.4178
 31
0.0
  0
LINE
  8
0
 62
     0
 10
43.4315
 20
43.4178
 30
0.0
 11
43.4315
 21
57.4188
 31
0.0
  0
LINE
  8
0
 62
     0
 10
62.4815
 20
57.4188
 30
0.0
 11
76.4812
 21
57.4188
 31
0.0
  0
LINE
  8
0
 62
     0
 10
76.4812
 20
57.4188
 30
0.0
 11
76.4812
 21
43.4178
 31
0.0
  0
LINE
  8
0
 62
     0
 10
76.4812
 20
43.4178
 30
0.0
 11
62.4815
 21
43.4178
 31
0.0
  0
LINE
  8
0
 62
     0
 10
62.4815
 20
43.4178
 30
0.0
 11
62.4815
 21
57.4188
 31
0.0
  0
LINE
  8
0
 62
     0
 10
81.5315
 20
57.4188
 30
0.0
 11
95.5312
 21
57.4188
 31
0.0
  0
LINE
  8
0
 62
     0
 10
95.5312
 20
57.4188
 30
0.0
 11
95.5312
 21
43.4178
 31
0.0
  0
LINE
  8
0
 62
     0
 10
95.5312
 20
43.4178
 30
0.0
 11
81.5315
 21
43.4178
 31
0.0
  0
LINE
  8
0
 62
     0
 10
81.5315
 20
43.4178
 30
0.0
 11
81.5315
 21
57.4188
 31
0.0
  0
LINE
  8
0
 62
     0
 10
100.582
 20
57.4188
 30
0.0
 11
114.581
 21
57.4188
 31
0.0
  0
LINE
  8
0
 62
     0
 10
114.581
 20
57.4188
 30
0.0
 11
114.581
 21
43.4178
 31
0.0
  0
LINE
  8
0
 62
     0
 10
114.581
 20
43.4178
 30
0.0
 11
100.582
 21
43.4178
 31
0.0
  0
LINE
  8
0
 62
     0
 10
100.582
 20
43.4178
 30
0.0
 11
100.582
 21
57.4188
 31
0.0
  0
LINE
  8
0
 62
     0
 10
119.632
 20
57.4188
 30
0.0
 11
133.631
 21
57.4188
 31
0.0
  0
LINE
  8
0
 62
     0
 10
133.631
 20
57.4188
 30
0.0
 11
133.631
 21
43.4178
 31
0.0
  0
LINE
  8
0
 62
     0
 10
133.631
 20
43.4178
 30
0.0
 11
119.632
 21
43.4178
 31
0.0
  0
LINE
  8
0
 62
     0
 10
119.632
 20
43.4178
 30
0.0
 11
119.632
 21
57.4188
 31
0.0
  0
LINE
  8
0
 62
     0
 10
138.682
 20
57.4188
 30
0.0
 11
152.681
 21
57.4188
 31
0.0
  0
LINE
  8
0
 62
     0
 10
152.681
 20
57.4188
 30
0.0
 11
152.681
 21
43.4178
 31
0.0
  0
LINE
  8
0
 62
     0
 10
152.681
 20
43.4178
 30
0.0
 11
138.682
 21
43.4178
 31
0.0
  0
LINE
  8
0
 62
     0
 10
138.682
 20
43.4178
 30
0.0
 11
138.682
 21
57.4188
 31
0.0
  0
LINE
  8
0
 62
     0
 10
157.732
 20
57.4188
 30
0.0
 11
171.731
 21
57.4188
 31
0.0
  0
LINE
  8
0
 62
     0
 10
171.731
 20
57.4188
 30
0.0
 11
171.731
 21
43.4178
 31
0.0
  0
LINE
  8
0
 62
     0
 10
171.731
 20
43.4178
 30
0.0
 11
157.732
 21
43.4178
 31
0.0
  0
LINE
  8
0
 62
     0
 10
157.732
 20
43.4178
 30
0.0
 11
157.732
 21
57.4188
 31
0.0
  0
LINE
  8
0
 62
     0
 10
176.782
 20
57.4188
 30
0.0
 11
190.781
 21
57.4188
 31
0.0
  0
LINE
  8
0
 62
     0
 10
190.781
 20
57.4188
 30
0.0
 11
190.781
 21
43.4178
 31
0.0
  0
LINE
  8
0
 62
     0
 10
190.781
 20
43.4178
 30
0.0
 11
176.782
 21
43.4178
 31
0.0
  0
LINE
  8
0
 62
     0
 10
176.782
 20
43.4178
 30
0.0
 11
176.782
 21
57.4188
 31
0.0
  0
LINE
  8
0
 62
     0
 10
195.832
 20
57.4188
 30
0.0
 11
209.831
 21
57.4188
 31
0.0
  0
LINE
  8
0
 62
     0
 10
209.831
 20
57.4188
 30
0.0
 11
209.831
 21
43.4178
 31
0.0
  0
LINE
  8
0
 62
     0
 10
209.831
 20
43.4178
 30
0.0
 11
195.832
 21
43.4178
 31
0.0
  0
LINE
  8
0
 62
     0
 10
195.832
 20
43.4178
 30
0.0
 11
195.832
 21
57.4188
 31
0.0
  0
LINE
  8
0
 62
     0
 10
214.882
 20
57.4188
 30
0.0
 11
228.881
 21
57.4188
 31
0.0
  0
LINE
  8
0
 62
     0
 10
228.881
 20
57.4188
 30
0.0
 11
228.881
 21
43.4178
 31
0.0
  0
LINE
  8
0
 62
     0
 10
228.881
 20
43.4178
 30
0.0
 11
214.882
 21
43.4178
 31
0.0
  0
LINE
  8
0
 62
     0
 10
214.882
 20
43.4178
 30
0.0
 11
214.882
 21
57.4188
 31
0.0
  0
LINE
  8
0
 62
     0
 10
233.932
 20
57.4188
 30
0.0
 11
247.931
 21
57.4188
 31
0.0
  0
LINE
  8
0
 62
     0
 10
247.931
 20
57.4188
 30
0.0
 11
247.931
 21
43.4178
 31
0.0
  0
LINE
  8
0
 62
     0
 10
247.931
 20
43.4178
 30
0.0
 11
233.932
 21
43.4178
 31
0.0
  0
LINE
  8
0
 62
     0
 10
233.932
 20
43.4178
 30
0.0
 11
233.932
 21
57.4188
 31
0.0
  0
LINE
  8
0
 62
     0
 10
260.125
 20
57.4188
 30
0.0
 11
274.126
 21
57.4188
 31
0.0
  0
LINE
  8
0
 62
     0
 10
274.126
 20
57.4188
 30
0.0
 11
274.126
 21
43.4178
 31
0.0
  0
LINE
  8
0
 62
     0
 10
274.126
 20
43.4178
 30
0.0
 11
260.125
 21
43.4178
 31
0.0
  0
LINE
  8
0
 62
     0
 10
260.125
 20
43.4178
 30
0.0
 11
260.125
 21
57.4188
 31
0.0
  0
LINE
  8
0
 62
     0
 10
314.894
 20
57.4188
 30
0.0
 11
328.895
 21
57.4188
 31
0.0
  0
LINE
  8
0
 62
     0
 10
328.895
 20
57.4188
 30
0.0
 11
328.895
 21
43.4178
 31
0.0
  0
LINE
  8
0
 62
     0
 10
328.895
 20
43.4178
 30
0.0
 11
314.894
 21
43.4178
 31
0.0
  0
LINE
  8
0
 62
     0
 10
314.894
 20
43.4178
 30
0.0
 11
314.894
 21
57.4188
 31
0.0
  0
LINE
  8
0
 62
     0
 10
333.944
 20
57.4188
 30
0.0
 11
347.945
 21
57.4188
 31
0.0
  0
LINE
  8
0
 62
     0
 10
347.945
 20
57.4188
 30
0.0
 11
347.945
 21
43.4178
 31
0.0
  0
LINE
  8
0
 62
     0
 10
347.945
 20
43.4178
 30
0.0
 11
333.944
 21
43.4178
 31
0.0
  0
LINE
  8
0
 62
     0
 10
333.944
 20
43.4178
 30
0.0
 11
333.944
 21
57.4188
 31
0.0
  0
LINE
  8
0
 62
     0
 10
352.993
 20
57.4188
 30
0.0
 11
366.995
 21
57.4188
 31
0.0
  0
LINE
  8
0
 62
     0
 10
366.995
 20
57.4188
 30
0.0
 11
366.995
 21
43.4178
 31
0.0
  0
LINE
  8
0
 62
     0
 10
366.995
 20
43.4178
 30
0.0
 11
352.993
 21
43.4178
 31
0.0
  0
LINE
  8
0
 62
     0
 10
352.993
 20
43.4178
 30
0.0
 11
352.993
 21
57.4188
 31
0.0
  0
LINE
  8
0
 62
     0
 10
26.7629
 20
76.4688
 30
0.0
 11
40.7624
 21
76.4688
 31
0.0
  0
LINE
  8
0
 62
     0
 10
40.7624
 20
76.4688
 30
0.0
 11
40.7624
 21
62.4678
 31
0.0
  0
LINE
  8
0
 62
     0
 10
40.7624
 20
62.4678
 30
0.0
 11
26.7629
 21
62.4678
 31
0.0
  0
LINE
  8
0
 62
     0
 10
26.7629
 20
62.4678
 30
0.0
 11
26.7629
 21
76.4688
 31
0.0
  0
LINE
  8
0
 62
     0
 10
52.9565
 20
76.4688
 30
0.0
 11
66.9562
 21
76.4688
 31
0.0
  0
LINE
  8
0
 62
     0
 10
66.9562
 20
76.4688
 30
0.0
 11
66.9562
 21
62.4678
 31
0.0
  0
LINE
  8
0
 62
     0
 10
66.9562
 20
62.4678
 30
0.0
 11
52.9565
 21
62.4678
 31
0.0
  0
LINE
  8
0
 62
     0
 10
52.9565
 20
62.4678
 30
0.0
 11
52.9565
 21
76.4688
 31
0.0
  0
LINE
  8
0
 62
     0
 10
72.0065
 20
76.4688
 30
0.0
 11
86.0062
 21
76.4688
 31
0.0
  0
LINE
  8
0
 62
     0
 10
86.0062
 20
76.4688
 30
0.0
 11
86.0062
 21
62.4678
 31
0.0
  0
LINE
  8
0
 62
     0
 10
86.0062
 20
62.4678
 30
0.0
 11
72.0065
 21
62.4678
 31
0.0
  0
LINE
  8
0
 62
     0
 10
72.0065
 20
62.4678
 30
0.0
 11
72.0065
 21
76.4688
 31
0.0
  0
LINE
  8
0
 62
     0
 10
91.0565
 20
76.4688
 30
0.0
 11
105.056
 21
76.4688
 31
0.0
  0
LINE
  8
0
 62
     0
 10
105.056
 20
76.4688
 30
0.0
 11
105.056
 21
62.4678
 31
0.0
  0
LINE
  8
0
 62
     0
 10
105.056
 20
62.4678
 30
0.0
 11
91.0565
 21
62.4678
 31
0.0
  0
LINE
  8
0
 62
     0
 10
91.0565
 20
62.4678
 30
0.0
 11
91.0565
 21
76.4688
 31
0.0
  0
LINE
  8
0
 62
     0
 10
110.107
 20
76.4688
 30
0.0
 11
124.106
 21
76.4688
 31
0.0
  0
LINE
  8
0
 62
     0
 10
124.106
 20
76.4688
 30
0.0
 11
124.106
 21
62.4678
 31
0.0
  0
LINE
  8
0
 62
     0
 10
124.106
 20
62.4678
 30
0.0
 11
110.107
 21
62.4678
 31
0.0
  0
LINE
  8
0
 62
     0
 10
110.107
 20
62.4678
 30
0.0
 11
110.107
 21
76.4688
 31
0.0
  0
LINE
  8
0
 62
     0
 10
129.157
 20
76.4688
 30
0.0
 11
143.156
 21
76.4688
 31
0.0
  0
LINE
  8
0
 62
     0
 10
143.156
 20
76.4688
 30
0.0
 11
143.156
 21
62.4678
 31
0.0
  0
LINE
  8
0
 62
     0
 10
143.156
 20
62.4678
 30
0.0
 11
129.157
 21
62.4678
 31
0.0
  0
LINE
  8
0
 62
     0
 10
129.157
 20
62.4678
 30
0.0
 11
129.157
 21
76.4688
 31
0.0
  0
LINE
  8
0
 62
     0
 10
148.207
 20
76.4688
 30
0.0
 11
162.206
 21
76.4688
 31
0.0
  0
LINE
  8
0
 62
     0
 10
162.206
 20
76.4688
 30
0.0
 11
162.206
 21
62.4678
 31
0.0
  0
LINE
  8
0
 62
     0
 10
162.206
 20
62.4678
 30
0.0
 11
148.207
 21
62.4678
 31
0.0
  0
LINE
  8
0
 62
     0
 10
148.207
 20
62.4678
 30
0.0
 11
148.207
 21
76.4688
 31
0.0
  0
LINE
  8
0
 62
     0
 10
167.257
 20
76.4688
 30
0.0
 11
181.256
 21
76.4688
 31
0.0
  0
LINE
  8
0
 62
     0
 10
181.256
 20
76.4688
 30
0.0
 11
181.256
 21
62.4678
 31
0.0
  0
LINE
  8
0
 62
     0
 10
181.256
 20
62.4678
 30
0.0
 11
167.257
 21
62.4678
 31
0.0
  0
LINE
  8
0
 62
     0
 10
167.257
 20
62.4678
 30
0.0
 11
167.257
 21
76.4688
 31
0.0
  0
LINE
  8
0
 62
     0
 10
186.307
 20
76.4688
 30
0.0
 11
200.306
 21
76.4688
 31
0.0
  0
LINE
  8
0
 62
     0
 10
200.306
 20
76.4688
 30
0.0
 11
200.306
 21
62.4678
 31
0.0
  0
LINE
  8
0
 62
     0
 10
200.306
 20
62.4678
 30
0.0
 11
186.307
 21
62.4678
 31
0.0
  0
LINE
  8
0
 62
     0
 10
186.307
 20
62.4678
 30
0.0
 11
186.307
 21
76.4688
 31
0.0
  0
LINE
  8
0
 62
     0
 10
205.357
 20
76.4688
 30
0.0
 11
219.356
 21
76.4688
 31
0.0
  0
LINE
  8
0
 62
     0
 10
219.356
 20
76.4688
 30
0.0
 11
219.356
 21
62.4678
 31
0.0
  0
LINE
  8
0
 62
     0
 10
219.356
 20
62.4678
 30
0.0
 11
205.357
 21
62.4678
 31
0.0
  0
LINE
  8
0
 62
     0
 10
205.357
 20
62.4678
 30
0.0
 11
205.357
 21
76.4688
 31
0.0
  0
LINE
  8
0
 62
     0
 10
224.407
 20
76.4688
 30
0.0
 11
238.406
 21
76.4688
 31
0.0
  0
LINE
  8
0
 62
     0
 10
238.406
 20
76.4688
 30
0.0
 11
238.406
 21
62.4678
 31
0.0
  0
LINE
  8
0
 62
     0
 10
238.406
 20
62.4678
 30
0.0
 11
224.407
 21
62.4678
 31
0.0
  0
LINE
  8
0
 62
     0
 10
224.407
 20
62.4678
 30
0.0
 11
224.407
 21
76.4688
 31
0.0
  0
LINE
  8
0
 62
     0
 10
243.457
 20
76.4688
 30
0.0
 11
257.456
 21
76.4688
 31
0.0
  0
LINE
  8
0
 62
     0
 10
257.456
 20
76.4688
 30
0.0
 11
257.456
 21
62.4678
 31
0.0
  0
LINE
  8
0
 62
     0
 10
257.456
 20
62.4678
 30
0.0
 11
243.457
 21
62.4678
 31
0.0
  0
LINE
  8
0
 62
     0
 10
243.457
 20
62.4678
 30
0.0
 11
243.457
 21
76.4688
 31
0.0
  0
LINE
  8
0
 62
     0
 10
262.507
 20
76.4688
 30
0.0
 11
276.506
 21
76.4688
 31
0.0
  0
LINE
  8
0
 62
     0
 10
276.506
 20
76.4688
 30
0.0
 11
276.506
 21
62.4678
 31
0.0
  0
LINE
  8
0
 62
     0
 10
276.506
 20
62.4678
 30
0.0
 11
262.507
 21
62.4678
 31
0.0
  0
LINE
  8
0
 62
     0
 10
262.507
 20
62.4678
 30
0.0
 11
262.507
 21
76.4688
 31
0.0
  0
LINE
  8
0
 62
     0
 10
314.894
 20
76.4688
 30
0.0
 11
328.895
 21
76.4688
 31
0.0
  0
LINE
  8
0
 62
     0
 10
328.895
 20
76.4688
 30
0.0
 11
328.895
 21
62.4678
 31
0.0
  0
LINE
  8
0
 62
     0
 10
328.895
 20
62.4678
 30
0.0
 11
314.894
 21
62.4678
 31
0.0
  0
LINE
  8
0
 62
     0
 10
314.894
 20
62.4678
 30
0.0
 11
314.894
 21
76.4688
 31
0.0
  0
LINE
  8
0
 62
     0
 10
333.944
 20
76.4688
 30
0.0
 11
347.945
 21
76.4688
 31
0.0
  0
LINE
  8
0
 62
     0
 10
347.945
 20
76.4688
 30
0.0
 11
347.945
 21
62.4678
 31
0.0
  0
LINE
  8
0
 62
     0
 10
347.945
 20
62.4678
 30
0.0
 11
333.944
 21
62.4678
 31
0.0
  0
LINE
  8
0
 62
     0
 10
333.944
 20
62.4678
 30
0.0
 11
333.944
 21
76.4688
 31
0.0
  0
LINE
  8
0
 62
     0
 10
352.993
 20
76.4688
 30
0.0
 11
366.995
 21
76.4688
 31
0.0
  0
LINE
  8
0
 62
     0
 10
366.995
 20
76.4688
 30
0.0
 11
366.995
 21
62.4678
 31
0.0
  0
LINE
  8
0
 62
     0
 10
366.995
 20
62.4678
 30
0.0
 11
352.993
 21
62.4678
 31
0.0
  0
LINE
  8
0
 62
     0
 10
352.993
 20
62.4678
 30
0.0
 11
352.993
 21
76.4688
 31
0.0
  0
LINE
  8
0
 62
     0
 10
288.639
 20
95.093
 30
0.0
 11
288.639
 21
94.2675
 31
0.0
  0
LINE
  8
0
 62
     0
 10
288.639
 20
94.2675
 30
0.0
 11
285.408
 21
94.2675
 31
0.0
  0
LINE
  8
0
 62
     0
 10
285.408
 20
94.2675
 30
0.0
 11
285.408
 21
87.5178
 31
0.0
  0
LINE
  8
0
 62
     0
 10
285.408
 20
87.5178
 30
0.0
 11
288.639
 21
87.5178
 31
0.0
  0
LINE
  8
0
 62
     0
 10
288.639
 20
87.5178
 30
0.0
 11
288.639
 21
85.9938
 31
0.0
  0
LINE
  8
0
 62
     0
 10
288.639
 20
85.9938
 30
0.0
 11
283.938
 21
85.9938
 31
0.0
  0
LINE
  8
0
 62
     0
 10
283.938
 20
85.9938
 30
0.0
 11
283.938
 21
71.9928
 31
0.0
  0
LINE
  8
0
 62
     0
 10
283.938
 20
71.9928
 30
0.0
 11
288.639
 21
71.9928
 31
0.0
  0
LINE
  8
0
 62
     0
 10
288.639
 20
71.9928
 30
0.0
 11
288.639
 21
70.4688
 31
0.0
  0
LINE
  8
0
 62
     0
 10
288.639
 20
70.4688
 30
0.0
 11
285.408
 21
70.4688
 31
0.0
  0
LINE
  8
0
 62
     0
 10
285.408
 20
70.4688
 30
0.0
 11
285.408
 21
63.7177
 31
0.0
  0
LINE
  8
0
 62
     0
 10
285.408
 20
63.7177
 30
0.0
 11
288.639
 21
63.7177
 31
0.0
  0
LINE
  8
0
 62
     0
 10
288.639
 20
63.7177
 30
0.0
 11
288.639
 21
62.8936
 31
0.0
  0
LINE
  8
0
 62
     0
 10
288.639
 20
62.8936
 30
0.0
 11
291.437
 21
62.8936
 31
0.0
  0
LINE
  8
0
 62
     0
 10
291.437
 20
62.8936
 30
0.0
 11
291.437
 21
63.7177
 31
0.0
  0
LINE
  8
0
 62
     0
 10
291.437
 20
63.7177
 30
0.0
 11
297.707
 21
63.7177
 31
0.0
  0
LINE
  8
0
 62
     0
 10
297.707
 20
63.7177
 30
0.0
 11
297.707
 21
65.4431
 31
0.0
  0
LINE
  8
0
 62
     0
 10
297.707
 20
65.4431
 30
0.0
 11
298.908
 21
65.4431
 31
0.0
  0
LINE
  8
0
 62
     0
 10
298.908
 20
65.4431
 30
0.0
 11
298.908
 21
68.7433
 31
0.0
  0
LINE
  8
0
 62
     0
 10
298.908
 20
68.7433
 30
0.0
 11
297.707
 21
68.7433
 31
0.0
  0
LINE
  8
0
 62
     0
 10
297.707
 20
68.7433
 30
0.0
 11
297.707
 21
70.4688
 31
0.0
  0
LINE
  8
0
 62
     0
 10
297.707
 20
70.4688
 30
0.0
 11
293.238
 21
70.4688
 31
0.0
  0
LINE
  8
0
 62
     0
 10
293.238
 20
70.4688
 30
0.0
 11
293.238
 21
71.9928
 31
0.0
  0
LINE
  8
0
 62
     0
 10
293.238
 20
71.9928
 30
0.0
 11
297.937
 21
71.9928
 31
0.0
  0
LINE
  8
0
 62
     0
 10
297.937
 20
71.9928
 30
0.0
 11
297.937
 21
85.9938
 31
0.0
  0
LINE
  8
0
 62
     0
 10
297.937
 20
85.9938
 30
0.0
 11
293.238
 21
85.9938
 31
0.0
  0
LINE
  8
0
 62
     0
 10
293.238
 20
85.9938
 30
0.0
 11
293.238
 21
87.5178
 31
0.0
  0
LINE
  8
0
 62
     0
 10
293.238
 20
87.5178
 30
0.0
 11
297.707
 21
87.5178
 31
0.0
  0
LINE
  8
0
 62
     0
 10
297.707
 20
87.5178
 30
0.0
 11
297.707
 21
89.2433
 31
0.0
  0
LINE
  8
0
 62
     0
 10
297.707
 20
89.2433
 30
0.0
 11
298.908
 21
89.2433
 31
0.0
  0
LINE
  8
0
 62
     0
 10
298.908
 20
89.2433
 30
0.0
 11
298.908
 21
92.5435
 31
0.0
  0
LINE
  8
0
 62
     0
 10
298.908
 20
92.5435
 30
0.0
 11
297.707
 21
92.5435
 31
0.0
  0
LINE
  8
0
 62
     0
 10
297.707
 20
92.5435
 30
0.0
 11
297.707
 21
94.2675
 31
0.0
  0
LINE
  8
0
 62
     0
 10
297.707
 20
94.2675
 30
0.0
 11
291.437
 21
94.2675
 31
0.0
  0
LINE
  8
0
 62
     0
 10
291.437
 20
94.2675
 30
0.0
 11
291.437
 21
95.093
 31
0.0
  0
LINE
  8
0
 62
     0
 10
291.437
 20
95.093
 30
0.0
 11
288.639
 21
95.093
 31
0.0
  0
LINE
  8
0
 62
     0
 10
378.545
 20
95.093
 30
0.0
 11
378.545
 21
94.2675
 31
0.0
  0
LINE
  8
0
 62
     0
 10
378.545
 20
94.2675
 30
0.0
 11
372.276
 21
94.2675
 31
0.0
  0
LINE
  8
0
 62
     0
 10
372.276
 20
94.2675
 30
0.0
 11
372.276
 21
92.5435
 31
0.0
  0
LINE
  8
0
 62
     0
 10
372.276
 20
92.5435
 30
0.0
 11
371.076
 21
92.5435
 31
0.0
  0
LINE
  8
0
 62
     0
 10
371.076
 20
92.5435
 30
0.0
 11
371.076
 21
89.2433
 31
0.0
  0
LINE
  8
0
 62
     0
 10
371.076
 20
89.2433
 30
0.0
 11
372.276
 21
89.2433
 31
0.0
  0
LINE
  8
0
 62
     0
 10
372.276
 20
89.2433
 30
0.0
 11
372.276
 21
87.5178
 31
0.0
  0
LINE
  8
0
 62
     0
 10
372.276
 20
87.5178
 30
0.0
 11
376.745
 21
87.5178
 31
0.0
  0
LINE
  8
0
 62
     0
 10
376.745
 20
87.5178
 30
0.0
 11
376.745
 21
85.9938
 31
0.0
  0
LINE
  8
0
 62
     0
 10
376.745
 20
85.9938
 30
0.0
 11
372.043
 21
85.9938
 31
0.0
  0
LINE
  8
0
 62
     0
 10
372.043
 20
85.9938
 30
0.0
 11
372.043
 21
71.9928
 31
0.0
  0
LINE
  8
0
 62
     0
 10
372.043
 20
71.9928
 30
0.0
 11
376.745
 21
71.9928
 31
0.0
  0
LINE
  8
0
 62
     0
 10
376.745
 20
71.9928
 30
0.0
 11
376.745
 21
70.4688
 31
0.0
  0
LINE
  8
0
 62
     0
 10
376.745
 20
70.4688
 30
0.0
 11
372.276
 21
70.4688
 31
0.0
  0
LINE
  8
0
 62
     0
 10
372.276
 20
70.4688
 30
0.0
 11
372.276
 21
68.7433
 31
0.0
  0
LINE
  8
0
 62
     0
 10
372.276
 20
68.7433
 30
0.0
 11
371.076
 21
68.7433
 31
0.0
  0
LINE
  8
0
 62
     0
 10
371.076
 20
68.7433
 30
0.0
 11
371.076
 21
65.4431
 31
0.0
  0
LINE
  8
0
 62
     0
 10
371.076
 20
65.4431
 30
0.0
 11
372.276
 21
65.4431
 31
0.0
  0
LINE
  8
0
 62
     0
 10
372.276
 20
65.4431
 30
0.0
 11
372.276
 21
63.7177
 31
0.0
  0
LINE
  8
0
 62
     0
 10
372.276
 20
63.7177
 30
0.0
 11
378.545
 21
63.7177
 31
0.0
  0
LINE
  8
0
 62
     0
 10
378.545
 20
63.7177
 30
0.0
 11
378.545
 21
62.8936
 31
0.0
  0
LINE
  8
0
 62
     0
 10
378.545
 20
62.8936
 30
0.0
 11
381.346
 21
62.8936
 31
0.0
  0
LINE
  8
0
 62
     0
 10
381.346
 20
62.8936
 30
0.0
 11
381.346
 21
63.7177
 31
0.0
  0
LINE
  8
0
 62
     0
 10
381.346
 20
63.7177
 30
0.0
 11
384.574
 21
63.7177
 31
0.0
  0
LINE
  8
0
 62
     0
 10
384.574
 20
63.7177
 30
0.0
 11
384.574
 21
70.4688
 31
0.0
  0
LINE
  8
0
 62
     0
 10
384.574
 20
70.4688
 30
0.0
 11
381.346
 21
70.4688
 31
0.0
  0
LINE
  8
0
 62
     0
 10
381.346
 20
70.4688
 30
0.0
 11
381.346
 21
71.9928
 31
0.0
  0
LINE
  8
0
 62
     0
 10
381.346
 20
71.9928
 30
0.0
 11
386.045
 21
71.9928
 31
0.0
  0
LINE
  8
0
 62
     0
 10
386.045
 20
71.9928
 30
0.0
 11
386.045
 21
85.9938
 31
0.0
  0
LINE
  8
0
 62
     0
 10
386.045
 20
85.9938
 30
0.0
 11
381.346
 21
85.9938
 31
0.0
  0
LINE
  8
0
 62
     0
 10
381.346
 20
85.9938
 30
0.0
 11
381.346
 21
87.5178
 31
0.0
  0
LINE
  8
0
 62
     0
 10
381.346
 20
87.5178
 30
0.0
 11
384.574
 21
87.5178
 31
0.0
  0
LINE
  8
0
 62
     0
 10
384.574
 20
87.5178
 30
0.0
 11
384.574
 21
94.2675
 31
0.0
  0
LINE
  8
0
 62
     0
 10
384.574
 20
94.2675
 30
0.0
 11
381.346
 21
94.2675
 31
0.0
  0
LINE
  8
0
 62
     0
 10
381.346
 20
94.2675
 30
0.0
 11
381.346
 21
95.093
 31
0.0
  0
LINE
  8
0
 62
     0
 10
381.346
 20
95.093
 30
0.0
 11
378.545
 21
95.093
 31
0.0
  0
LINE
  8
0
 62
     0
 10
24.3816
 20
95.5188
 30
0.0
 11
38.3812
 21
95.5188
 31
0.0
  0
LINE
  8
0
 62
     0
 10
38.3812
 20
95.5188
 30
0.0
 11
38.3812
 21
81.5178
 31
0.0
  0
LINE
  8
0
 62
     0
 10
38.3812
 20
81.5178
 30
0.0
 11
24.3816
 21
81.5178
 31
0.0
  0
LINE
  8
0
 62
     0
 10
24.3816
 20
81.5178
 30
0.0
 11
24.3816
 21
95.5188
 31
0.0
  0
LINE
  8
0
 62
     0
 10
48.194
 20
95.5188
 30
0.0
 11
62.1951
 21
95.5188
 31
0.0
  0
LINE
  8
0
 62
     0
 10
62.1951
 20
95.5188
 30
0.0
 11
62.1951
 21
81.5178
 31
0.0
  0
LINE
  8
0
 62
     0
 10
62.1951
 20
81.5178
 30
0.0
 11
48.194
 21
81.5178
 31
0.0
  0
LINE
  8
0
 62
     0
 10
48.194
 20
81.5178
 30
0.0
 11
48.194
 21
95.5188
 31
0.0
  0
LINE
  8
0
 62
     0
 10
67.244
 20
95.5188
 30
0.0
 11
81.2451
 21
95.5188
 31
0.0
  0
LINE
  8
0
 62
     0
 10
81.2451
 20
95.5188
 30
0.0
 11
81.2451
 21
81.5178
 31
0.0
  0
LINE
  8
0
 62
     0
 10
81.2451
 20
81.5178
 30
0.0
 11
67.244
 21
81.5178
 31
0.0
  0
LINE
  8
0
 62
     0
 10
67.244
 20
81.5178
 30
0.0
 11
67.244
 21
95.5188
 31
0.0
  0
LINE
  8
0
 62
     0
 10
86.294
 20
95.5188
 30
0.0
 11
100.295
 21
95.5188
 31
0.0
  0
LINE
  8
0
 62
     0
 10
100.295
 20
95.5188
 30
0.0
 11
100.295
 21
81.5178
 31
0.0
  0
LINE
  8
0
 62
     0
 10
100.295
 20
81.5178
 30
0.0
 11
86.294
 21
81.5178
 31
0.0
  0
LINE
  8
0
 62
     0
 10
86.294
 20
81.5178
 30
0.0
 11
86.294
 21
95.5188
 31
0.0
  0
LINE
  8
0
 62
     0
 10
105.344
 20
95.5188
 30
0.0
 11
119.345
 21
95.5188
 31
0.0
  0
LINE
  8
0
 62
     0
 10
119.345
 20
95.5188
 30
0.0
 11
119.345
 21
81.5178
 31
0.0
  0
LINE
  8
0
 62
     0
 10
119.345
 20
81.5178
 30
0.0
 11
105.344
 21
81.5178
 31
0.0
  0
LINE
  8
0
 62
     0
 10
105.344
 20
81.5178
 30
0.0
 11
105.344
 21
95.5188
 31
0.0
  0
LINE
  8
0
 62
     0
 10
124.394
 20
95.5188
 30
0.0
 11
138.395
 21
95.5188
 31
0.0
  0
LINE
  8
0
 62
     0
 10
138.395
 20
95.5188
 30
0.0
 11
138.395
 21
81.5178
 31
0.0
  0
LINE
  8
0
 62
     0
 10
138.395
 20
81.5178
 30
0.0
 11
124.394
 21
81.5178
 31
0.0
  0
LINE
  8
0
 62
     0
 10
124.394
 20
81.5178
 30
0.0
 11
124.394
 21
95.5188
 31
0.0
  0
LINE
  8
0
 62
     0
 10
143.444
 20
95.5188
 30
0.0
 11
157.445
 21
95.5188
 31
0.0
  0
LINE
  8
0
 62
     0
 10
157.445
 20
95.5188
 30
0.0
 11
157.445
 21
81.5178
 31
0.0
  0
LINE
  8
0
 62
     0
 10
157.445
 20
81.5178
 30
0.0
 11
143.444
 21
81.5178
 31
0.0
  0
LINE
  8
0
 62
     0
 10
143.444
 20
81.5178
 30
0.0
 11
143.444
 21
95.5188
 31
0.0
  0
LINE
  8
0
 62
     0
 10
162.494
 20
95.5188
 30
0.0
 11
176.495
 21
95.5188
 31
0.0
  0
LINE
  8
0
 62
     0
 10
176.495
 20
95.5188
 30
0.0
 11
176.495
 21
81.5178
 31
0.0
  0
LINE
  8
0
 62
     0
 10
176.495
 20
81.5178
 30
0.0
 11
162.494
 21
81.5178
 31
0.0
  0
LINE
  8
0
 62
     0
 10
162.494
 20
81.5178
 30
0.0
 11
162.494
 21
95.5188
 31
0.0
  0
LINE
  8
0
 62
     0
 10
181.544
 20
95.5188
 30
0.0
 11
195.545
 21
95.5188
 31
0.0
  0
LINE
  8
0
 62
     0
 10
195.545
 20
95.5188
 30
0.0
 11
195.545
 21
81.5178
 31
0.0
  0
LINE
  8
0
 62
     0
 10
195.545
 20
81.5178
 30
0.0
 11
181.544
 21
81.5178
 31
0.0
  0
LINE
  8
0
 62
     0
 10
181.544
 20
81.5178
 30
0.0
 11
181.544
 21
95.5188
 31
0.0
  0
LINE
  8
0
 62
     0
 10
200.594
 20
95.5188
 30
0.0
 11
214.595
 21
95.5188
 31
0.0
  0
LINE
  8
0
 62
     0
 10
214.595
 20
95.5188
 30
0.0
 11
214.595
 21
81.5178
 31
0.0
  0
LINE
  8
0
 62
     0
 10
214.595
 20
81.5178
 30
0.0
 11
200.594
 21
81.5178
 31
0.0
  0
LINE
  8
0
 62
     0
 10
200.594
 20
81.5178
 30
0.0
 11
200.594
 21
95.5188
 31
0.0
  0
LINE
  8
0
 62
     0
 10
219.644
 20
95.5188
 30
0.0
 11
233.645
 21
95.5188
 31
0.0
  0
LINE
  8
0
 62
     0
 10
233.645
 20
95.5188
 30
0.0
 11
233.645
 21
81.5178
 31
0.0
  0
LINE
  8
0
 62
     0
 10
233.645
 20
81.5178
 30
0.0
 11
219.644
 21
81.5178
 31
0.0
  0
LINE
  8
0
 62
     0
 10
219.644
 20
81.5178
 30
0.0
 11
219.644
 21
95.5188
 31
0.0
  0
LINE
  8
0
 62
     0
 10
238.694
 20
95.5188
 30
0.0
 11
252.695
 21
95.5188
 31
0.0
  0
LINE
  8
0
 62
     0
 10
252.695
 20
95.5188
 30
0.0
 11
252.695
 21
81.5178
 31
0.0
  0
LINE
  8
0
 62
     0
 10
252.695
 20
81.5178
 30
0.0
 11
238.694
 21
81.5178
 31
0.0
  0
LINE
  8
0
 62
     0
 10
238.694
 20
81.5178
 30
0.0
 11
238.694
 21
95.5188
 31
0.0
  0
LINE
  8
0
 62
     0
 10
257.744
 20
95.5188
 30
0.0
 11
271.745
 21
95.5188
 31
0.0
  0
LINE
  8
0
 62
     0
 10
271.745
 20
95.5188
 30
0.0
 11
271.745
 21
81.5178
 31
0.0
  0
LINE
  8
0
 62
     0
 10
271.745
 20
81.5178
 30
0.0
 11
257.744
 21
81.5178
 31
0.0
  0
LINE
  8
0
 62
     0
 10
257.744
 20
81.5178
 30
0.0
 11
257.744
 21
95.5188
 31
0.0
  0
LINE
  8
0
 62
     0
 10
314.894
 20
95.5188
 30
0.0
 11
328.895
 21
95.5188
 31
0.0
  0
LINE
  8
0
 62
     0
 10
328.895
 20
95.5188
 30
0.0
 11
328.895
 21
81.5178
 31
0.0
  0
LINE
  8
0
 62
     0
 10
328.895
 20
81.5178
 30
0.0
 11
314.894
 21
81.5178
 31
0.0
  0
LINE
  8
0
 62
     0
 10
314.894
 20
81.5178
 30
0.0
 11
314.894
 21
95.5188
 31
0.0
  0
LINE
  8
0
 62
     0
 10
333.944
 20
95.5188
 30
0.0
 11
347.945
 21
95.5188
 31
0.0
  0
LINE
  8
0
 62
     0
 10
347.945
 20
95.5188
 30
0.0
 11
347.945
 21
81.5178
 31
0.0
  0
LINE
  8
0
 62
     0
 10
347.945
 20
81.5178
 30
0.0
 11
333.944
 21
81.5178
 31
0.0
  0
LINE
  8
0
 62
     0
 10
333.944
 20
81.5178
 30
0.0
 11
333.944
 21
95.5188
 31
0.0
  0
LINE
  8
0
 62
     0
 10
352.993
 20
95.5188
 30
0.0
 11
366.995
 21
95.5188
 31
0.0
  0
LINE
  8
0
 62
     0
 10
366.995
 20
95.5188
 30
0.0
 11
366.995
 21
81.5178
 31
0.0
  0
LINE
  8
0
 62
     0
 10
366.995
 20
81.5178
 30
0.0
 11
352.993
 21
81.5178
 31
0.0
  0
LINE
  8
0
 62
     0
 10
352.993
 20
81.5178
 30
0.0
 11
352.993
 21
95.5188
 31
0.0
  0
LINE
  8
0
 62
     0
 10
276.794
 20
114.569
 30
0.0
 11
276.794
 21
109.868
 31
0.0
  0
LINE
  8
0
 62
     0
 10
276.794
 20
109.868
 30
0.0
 11
275.27
 21
109.868
 31
0.0
  0
LINE
  8
0
 62
     0
 10
275.27
 20
109.868
 30
0.0
 11
275.27
 21
113.1
 31
0.0
  0
LINE
  8
0
 62
     0
 10
275.27
 20
113.1
 30
0.0
 11
268.52
 21
113.1
 31
0.0
  0
LINE
  8
0
 62
     0
 10
268.52
 20
113.1
 30
0.0
 11
268.52
 21
109.868
 31
0.0
  0
LINE
  8
0
 62
     0
 10
268.52
 20
109.868
 30
0.0
 11
267.695
 21
109.868
 31
0.0
  0
LINE
  8
0
 62
     0
 10
267.695
 20
109.868
 30
0.0
 11
267.695
 21
107.068
 31
0.0
  0
LINE
  8
0
 62
     0
 10
267.695
 20
107.068
 30
0.0
 11
268.52
 21
107.068
 31
0.0
  0
LINE
  8
0
 62
     0
 10
268.52
 20
107.068
 30
0.0
 11
268.52
 21
100.798
 31
0.0
  0
LINE
  8
0
 62
     0
 10
268.52
 20
100.798
 30
0.0
 11
270.244
 21
100.798
 31
0.0
  0
LINE
  8
0
 62
     0
 10
270.244
 20
100.798
 30
0.0
 11
270.244
 21
99.5976
 31
0.0
  0
LINE
  8
0
 62
     0
 10
270.244
 20
99.5976
 30
0.0
 11
273.545
 21
99.5976
 31
0.0
  0
LINE
  8
0
 62
     0
 10
273.545
 20
99.5976
 30
0.0
 11
273.545
 21
100.798
 31
0.0
  0
LINE
  8
0
 62
     0
 10
273.545
 20
100.798
 30
0.0
 11
275.27
 21
100.798
 31
0.0
  0
LINE
  8
0
 62
     0
 10
275.27
 20
100.798
 30
0.0
 11
275.27
 21
105.27
 31
0.0
  0
LINE
  8
0
 62
     0
 10
275.27
 20
105.27
 30
0.0
 11
276.794
 21
105.27
 31
0.0
  0
LINE
  8
0
 62
     0
 10
276.794
 20
105.27
 30
0.0
 11
276.794
 21
100.568
 31
0.0
  0
LINE
  8
0
 62
     0
 10
276.794
 20
100.568
 30
0.0
 11
290.795
 21
100.568
 31
0.0
  0
LINE
  8
0
 62
     0
 10
290.795
 20
100.568
 30
0.0
 11
290.795
 21
105.27
 31
0.0
  0
LINE
  8
0
 62
     0
 10
290.795
 20
105.27
 30
0.0
 11
292.319
 21
105.27
 31
0.0
  0
LINE
  8
0
 62
     0
 10
292.319
 20
105.27
 30
0.0
 11
292.319
 21
100.798
 31
0.0
  0
LINE
  8
0
 62
     0
 10
292.319
 20
100.798
 30
0.0
 11
294.045
 21
100.798
 31
0.0
  0
LINE
  8
0
 62
     0
 10
294.045
 20
100.798
 30
0.0
 11
294.045
 21
99.5976
 31
0.0
  0
LINE
  8
0
 62
     0
 10
294.045
 20
99.5976
 30
0.0
 11
297.345
 21
99.5976
 31
0.0
  0
LINE
  8
0
 62
     0
 10
297.345
 20
99.5976
 30
0.0
 11
297.345
 21
100.798
 31
0.0
  0
LINE
  8
0
 62
     0
 10
297.345
 20
100.798
 30
0.0
 11
299.07
 21
100.798
 31
0.0
  0
LINE
  8
0
 62
     0
 10
299.07
 20
100.798
 30
0.0
 11
299.07
 21
107.068
 31
0.0
  0
LINE
  8
0
 62
     0
 10
299.07
 20
107.068
 30
0.0
 11
299.894
 21
107.068
 31
0.0
  0
LINE
  8
0
 62
     0
 10
299.894
 20
107.068
 30
0.0
 11
299.894
 21
109.868
 31
0.0
  0
LINE
  8
0
 62
     0
 10
299.894
 20
109.868
 30
0.0
 11
299.07
 21
109.868
 31
0.0
  0
LINE
  8
0
 62
     0
 10
299.07
 20
109.868
 30
0.0
 11
299.07
 21
113.1
 31
0.0
  0
LINE
  8
0
 62
     0
 10
299.07
 20
113.1
 30
0.0
 11
292.319
 21
113.1
 31
0.0
  0
LINE
  8
0
 62
     0
 10
292.319
 20
113.1
 30
0.0
 11
292.319
 21
109.868
 31
0.0
  0
LINE
  8
0
 62
     0
 10
292.319
 20
109.868
 30
0.0
 11
290.795
 21
109.868
 31
0.0
  0
LINE
  8
0
 62
     0
 10
290.795
 20
109.868
 30
0.0
 11
290.795
 21
114.569
 31
0.0
  0
LINE
  8
0
 62
     0
 10
290.795
 20
114.569
 30
0.0
 11
276.794
 21
114.569
 31
0.0
  0
LINE
  8
0
 62
     0
 10
19.6191
 20
114.569
 30
0.0
 11
33.62
 21
114.569
 31
0.0
  0
LINE
  8
0
 62
     0
 10
33.62
 20
114.569
 30
0.0
 11
33.62
 21
100.568
 31
0.0
  0
LINE
  8
0
 62
     0
 10
33.62
 20
100.568
 30
0.0
 11
19.6191
 21
100.568
 31
0.0
  0
LINE
  8
0
 62
     0
 10
19.6191
 20
100.568
 30
0.0
 11
19.6191
 21
114.569
 31
0.0
  0
LINE
  8
0
 62
     0
 10
38.669
 20
114.569
 30
0.0
 11
52.6701
 21
114.569
 31
0.0
  0
LINE
  8
0
 62
     0
 10
52.6701
 20
114.569
 30
0.0
 11
52.6701
 21
100.568
 31
0.0
  0
LINE
  8
0
 62
     0
 10
52.6701
 20
100.568
 30
0.0
 11
38.669
 21
100.568
 31
0.0
  0
LINE
  8
0
 62
     0
 10
38.669
 20
100.568
 30
0.0
 11
38.669
 21
114.569
 31
0.0
  0
LINE
  8
0
 62
     0
 10
57.719
 20
114.569
 30
0.0
 11
71.7201
 21
114.569
 31
0.0
  0
LINE
  8
0
 62
     0
 10
71.7201
 20
114.569
 30
0.0
 11
71.7201
 21
100.568
 31
0.0
  0
LINE
  8
0
 62
     0
 10
71.7201
 20
100.568
 30
0.0
 11
57.719
 21
100.568
 31
0.0
  0
LINE
  8
0
 62
     0
 10
57.719
 20
100.568
 30
0.0
 11
57.719
 21
114.569
 31
0.0
  0
LINE
  8
0
 62
     0
 10
76.769
 20
114.569
 30
0.0
 11
90.7701
 21
114.569
 31
0.0
  0
LINE
  8
0
 62
     0
 10
90.7701
 20
114.569
 30
0.0
 11
90.7701
 21
100.568
 31
0.0
  0
LINE
  8
0
 62
     0
 10
90.7701
 20
100.568
 30
0.0
 11
76.769
 21
100.568
 31
0.0
  0
LINE
  8
0
 62
     0
 10
76.769
 20
100.568
 30
0.0
 11
76.769
 21
114.569
 31
0.0
  0
LINE
  8
0
 62
     0
 10
95.819
 20
114.569
 30
0.0
 11
109.82
 21
114.569
 31
0.0
  0
LINE
  8
0
 62
     0
 10
109.82
 20
114.569
 30
0.0
 11
109.82
 21
100.568
 31
0.0
  0
LINE
  8
0
 62
     0
 10
109.82
 20
100.568
 30
0.0
 11
95.819
 21
100.568
 31
0.0
  0
LINE
  8
0
 62
     0
 10
95.819
 20
100.568
 30
0.0
 11
95.819
 21
114.569
 31
0.0
  0
LINE
  8
0
 62
     0
 10
114.869
 20
114.569
 30
0.0
 11
128.869
 21
114.569
 31
0.0
  0
LINE
  8
0
 62
     0
 10
128.869
 20
114.569
 30
0.0
 11
128.869
 21
100.568
 31
0.0
  0
LINE
  8
0
 62
     0
 10
128.869
 20
100.568
 30
0.0
 11
114.869
 21
100.568
 31
0.0
  0
LINE
  8
0
 62
     0
 10
114.869
 20
100.568
 30
0.0
 11
114.869
 21
114.569
 31
0.0
  0
LINE
  8
0
 62
     0
 10
133.919
 20
114.569
 30
0.0
 11
147.92
 21
114.569
 31
0.0
  0
LINE
  8
0
 62
     0
 10
147.92
 20
114.569
 30
0.0
 11
147.92
 21
100.568
 31
0.0
  0
LINE
  8
0
 62
     0
 10
147.92
 20
100.568
 30
0.0
 11
133.919
 21
100.568
 31
0.0
  0
LINE
  8
0
 62
     0
 10
133.919
 20
100.568
 30
0.0
 11
133.919
 21
114.569
 31
0.0
  0
LINE
  8
0
 62
     0
 10
152.969
 20
114.569
 30
0.0
 11
166.97
 21
114.569
 31
0.0
  0
LINE
  8
0
 62
     0
 10
166.97
 20
114.569
 30
0.0
 11
166.97
 21
100.568
 31
0.0
  0
LINE
  8
0
 62
     0
 10
166.97
 20
100.568
 30
0.0
 11
152.969
 21
100.568
 31
0.0
  0
LINE
  8
0
 62
     0
 10
152.969
 20
100.568
 30
0.0
 11
152.969
 21
114.569
 31
0.0
  0
LINE
  8
0
 62
     0
 10
172.019
 20
114.569
 30
0.0
 11
186.02
 21
114.569
 31
0.0
  0
LINE
  8
0
 62
     0
 10
186.02
 20
114.569
 30
0.0
 11
186.02
 21
100.568
 31
0.0
  0
LINE
  8
0
 62
     0
 10
186.02
 20
100.568
 30
0.0
 11
172.019
 21
100.568
 31
0.0
  0
LINE
  8
0
 62
     0
 10
172.019
 20
100.568
 30
0.0
 11
172.019
 21
114.569
 31
0.0
  0
LINE
  8
0
 62
     0
 10
191.069
 20
114.569
 30
0.0
 11
205.07
 21
114.569
 31
0.0
  0
LINE
  8
0
 62
     0
 10
205.07
 20
114.569
 30
0.0
 11
205.07
 21
100.568
 31
0.0
  0
LINE
  8
0
 62
     0
 10
205.07
 20
100.568
 30
0.0
 11
191.069
 21
100.568
 31
0.0
  0
LINE
  8
0
 62
     0
 10
191.069
 20
100.568
 30
0.0
 11
191.069
 21
114.569
 31
0.0
  0
LINE
  8
0
 62
     0
 10
210.119
 20
114.569
 30
0.0
 11
224.12
 21
114.569
 31
0.0
  0
LINE
  8
0
 62
     0
 10
224.12
 20
114.569
 30
0.0
 11
224.12
 21
100.568
 31
0.0
  0
LINE
  8
0
 62
     0
 10
224.12
 20
100.568
 30
0.0
 11
210.119
 21
100.568
 31
0.0
  0
LINE
  8
0
 62
     0
 10
210.119
 20
100.568
 30
0.0
 11
210.119
 21
114.569
 31
0.0
  0
LINE
  8
0
 62
     0
 10
229.169
 20
114.569
 30
0.0
 11
243.17
 21
114.569
 31
0.0
  0
LINE
  8
0
 62
     0
 10
243.17
 20
114.569
 30
0.0
 11
243.17
 21
100.568
 31
0.0
  0
LINE
  8
0
 62
     0
 10
243.17
 20
100.568
 30
0.0
 11
229.169
 21
100.568
 31
0.0
  0
LINE
  8
0
 62
     0
 10
229.169
 20
100.568
 30
0.0
 11
229.169
 21
114.569
 31
0.0
  0
LINE
  8
0
 62
     0
 10
248.219
 20
114.569
 30
0.0
 11
262.22
 21
114.569
 31
0.0
  0
LINE
  8
0
 62
     0
 10
262.22
 20
114.569
 30
0.0
 11
262.22
 21
100.568
 31
0.0
  0
LINE
  8
0
 62
     0
 10
262.22
 20
100.568
 30
0.0
 11
248.219
 21
100.568
 31
0.0
  0
LINE
  8
0
 62
     0
 10
248.219
 20
100.568
 30
0.0
 11
248.219
 21
114.569
 31
0.0
  0
LINE
  8
0
 62
     0
 10
314.894
 20
114.569
 30
0.0
 11
328.895
 21
114.569
 31
0.0
  0
LINE
  8
0
 62
     0
 10
328.895
 20
114.569
 30
0.0
 11
328.895
 21
100.568
 31
0.0
  0
LINE
  8
0
 62
     0
 10
328.895
 20
100.568
 30
0.0
 11
314.894
 21
100.568
 31
0.0
  0
LINE
  8
0
 62
     0
 10
314.894
 20
100.568
 30
0.0
 11
314.894
 21
114.569
 31
0.0
  0
LINE
  8
0
 62
     0
 10
333.944
 20
114.569
 30
0.0
 11
347.945
 21
114.569
 31
0.0
  0
LINE
  8
0
 62
     0
 10
347.945
 20
114.569
 30
0.0
 11
347.945
 21
100.568
 31
0.0
  0
LINE
  8
0
 62
     0
 10
347.945
 20
100.568
 30
0.0
 11
333.944
 21
100.568
 31
0.0
  0
LINE
  8
0
 62
     0
 10
333.944
 20
100.568
 30
0.0
 11
333.944
 21
114.569
 31
0.0
  0
LINE
  8
0
 62
     0
 10
352.993
 20
114.569
 30
0.0
 11
366.995
 21
114.569
 31
0.0
  0
LINE
  8
0
 62
     0
 10
366.995
 20
114.569
 30
0.0
 11
366.995
 21
100.568
 31
0.0
  0
LINE
  8
0
 62
     0
 10
366.995
 20
100.568
 30
0.0
 11
352.993
 21
100.568
 31
0.0
  0
LINE
  8
0
 62
     0
 10
352.993
 20
100.568
 30
0.0
 11
352.993
 21
114.569
 31
0.0
  0
LINE
  8
0
 62
     0
 10
372.043
 20
114.569
 30
0.0
 11
386.045
 21
114.569
 31
0.0
  0
LINE
  8
0
 62
     0
 10
386.045
 20
114.569
 30
0.0
 11
386.045
 21
100.568
 31
0.0
  0
LINE
  8
0
 62
     0
 10
386.045
 20
100.568
 30
0.0
 11
372.043
 21
100.568
 31
0.0
  0
LINE
  8
0
 62
     0
 10
372.043
 20
100.568
 30
0.0
 11
372.043
 21
114.569
 31
0.0
  0
LINE
  8
0
 62
     0
 10
202.329
 20
133.639
 30
0.0
 11
201.877
 21
133.408
 31
0.0
  0
LINE
  8
0
 62
     0
 10
201.877
 20
133.408
 30
0.0
 11
201.517
 21
133.049
 31
0.0
  0
LINE
  8
0
 62
     0
 10
201.517
 20
133.049
 30
0.0
 11
201.287
 21
132.596
 31
0.0
  0
LINE
  8
0
 62
     0
 10
201.287
 20
132.596
 30
0.0
 11
201.208
 21
132.093
 31
0.0
  0
LINE
  8
0
 62
     0
 10
201.208
 20
132.093
 30
0.0
 11
201.287
 21
131.592
 31
0.0
  0
LINE
  8
0
 62
     0
 10
201.287
 20
131.592
 30
0.0
 11
201.517
 21
131.138
 31
0.0
  0
LINE
  8
0
 62
     0
 10
201.517
 20
131.138
 30
0.0
 11
201.877
 21
130.779
 31
0.0
  0
LINE
  8
0
 62
     0
 10
201.877
 20
130.779
 30
0.0
 11
202.329
 21
130.549
 31
0.0
  0
LINE
  8
0
 62
     0
 10
202.329
 20
130.549
 30
0.0
 11
202.832
 21
130.469
 31
0.0
  0
LINE
  8
0
 62
     0
 10
202.832
 20
130.469
 30
0.0
 11
203.335
 21
130.549
 31
0.0
  0
LINE
  8
0
 62
     0
 10
203.335
 20
130.549
 30
0.0
 11
203.788
 21
130.779
 31
0.0
  0
LINE
  8
0
 62
     0
 10
203.788
 20
130.779
 30
0.0
 11
204.147
 21
131.138
 31
0.0
  0
LINE
  8
0
 62
     0
 10
204.147
 20
131.138
 30
0.0
 11
204.378
 21
131.592
 31
0.0
  0
LINE
  8
0
 62
     0
 10
204.378
 20
131.592
 30
0.0
 11
204.458
 21
132.093
 31
0.0
  0
LINE
  8
0
 62
     0
 10
204.458
 20
132.093
 30
0.0
 11
204.378
 21
132.596
 31
0.0
  0
LINE
  8
0
 62
     0
 10
204.378
 20
132.596
 30
0.0
 11
204.147
 21
133.049
 31
0.0
  0
LINE
  8
0
 62
     0
 10
204.147
 20
133.049
 30
0.0
 11
203.788
 21
133.408
 31
0.0
  0
LINE
  8
0
 62
     0
 10
203.788
 20
133.408
 30
0.0
 11
203.335
 21
133.639
 31
0.0
  0
LINE
  8
0
 62
     0
 10
203.335
 20
133.639
 30
0.0
 11
202.832
 21
133.718
 31
0.0
  0
LINE
  8
0
 62
     0
 10
202.832
 20
133.718
 30
0.0
 11
202.329
 21
133.639
 31
0.0
  0
LINE
  8
0
 62
     0
 10
400.068
 20
133.639
 30
0.0
 11
399.616
 21
133.408
 31
0.0
  0
LINE
  8
0
 62
     0
 10
399.616
 20
133.408
 30
0.0
 11
399.256
 21
133.049
 31
0.0
  0
LINE
  8
0
 62
     0
 10
399.256
 20
133.049
 30
0.0
 11
399.023
 21
132.596
 31
0.0
  0
LINE
  8
0
 62
     0
 10
399.023
 20
132.596
 30
0.0
 11
398.946
 21
132.093
 31
0.0
  0
LINE
  8
0
 62
     0
 10
398.946
 20
132.093
 30
0.0
 11
399.023
 21
131.592
 31
0.0
  0
LINE
  8
0
 62
     0
 10
399.023
 20
131.592
 30
0.0
 11
399.256
 21
131.138
 31
0.0
  0
LINE
  8
0
 62
     0
 10
399.256
 20
131.138
 30
0.0
 11
399.616
 21
130.779
 31
0.0
  0
LINE
  8
0
 62
     0
 10
399.616
 20
130.779
 30
0.0
 11
400.068
 21
130.549
 31
0.0
  0
LINE
  8
0
 62
     0
 10
400.068
 20
130.549
 30
0.0
 11
400.572
 21
130.469
 31
0.0
  0
LINE
  8
0
 62
     0
 10
400.572
 20
130.469
 30
0.0
 11
401.073
 21
130.549
 31
0.0
  0
LINE
  8
0
 62
     0
 10
401.073
 20
130.549
 30
0.0
 11
401.525
 21
130.779
 31
0.0
  0
LINE
  8
0
 62
     0
 10
401.525
 20
130.779
 30
0.0
 11
401.884
 21
131.138
 31
0.0
  0
LINE
  8
0
 62
     0
 10
401.884
 20
131.138
 30
0.0
 11
402.117
 21
131.592
 31
0.0
  0
LINE
  8
0
 62
     0
 10
402.117
 20
131.592
 30
0.0
 11
402.195
 21
132.093
 31
0.0
  0
LINE
  8
0
 62
     0
 10
402.195
 20
132.093
 30
0.0
 11
402.117
 21
132.596
 31
0.0
  0
LINE
  8
0
 62
     0
 10
402.117
 20
132.596
 30
0.0
 11
401.884
 21
133.049
 31
0.0
  0
LINE
  8
0
 62
     0
 10
401.884
 20
133.049
 30
0.0
 11
401.525
 21
133.408
 31
0.0
  0
LINE
  8
0
 62
     0
 10
401.525
 20
133.408
 30
0.0
 11
401.073
 21
133.639
 31
0.0
  0
LINE
  8
0
 62
     0
 10
401.073
 20
133.639
 30
0.0
 11
400.572
 21
133.718
 31
0.0
  0
LINE
  8
0
 62
     0
 10
400.572
 20
133.718
 30
0.0
 11
400.068
 21
133.639
 31
0.0
  0
LINE
  8
0
 62
     0
 10
4.59161
 20
133.639
 30
0.0
 11
4.13826
 21
133.408
 31
0.0
  0
LINE
  8
0
 62
     0
 10
4.13826
 20
133.408
 30
0.0
 11
3.77994
 21
133.049
 31
0.0
  0
LINE
  8
0
 62
     0
 10
3.77994
 20
133.049
 30
0.0
 11
3.54845
 21
132.596
 31
0.0
  0
LINE
  8
0
 62
     0
 10
3.54845
 20
132.596
 30
0.0
 11
3.46852
 21
132.093
 31
0.0
  0
LINE
  8
0
 62
     0
 10
3.46852
 20
132.093
 30
0.0
 11
3.54845
 21
131.592
 31
0.0
  0
LINE
  8
0
 62
     0
 10
3.54845
 20
131.592
 30
0.0
 11
3.77994
 21
131.138
 31
0.0
  0
LINE
  8
0
 62
     0
 10
3.77994
 20
131.138
 30
0.0
 11
4.13826
 21
130.779
 31
0.0
  0
LINE
  8
0
 62
     0
 10
4.13826
 20
130.779
 30
0.0
 11
4.59161
 21
130.549
 31
0.0
  0
LINE
  8
0
 62
     0
 10
4.59161
 20
130.549
 30
0.0
 11
5.0946
 21
130.469
 31
0.0
  0
LINE
  8
0
 62
     0
 10
5.0946
 20
130.469
 30
0.0
 11
5.59622
 21
130.549
 31
0.0
  0
LINE
  8
0
 62
     0
 10
5.59622
 20
130.549
 30
0.0
 11
6.04957
 21
130.779
 31
0.0
  0
LINE
  8
0
 62
     0
 10
6.04957
 20
130.779
 30
0.0
 11
6.40927
 21
131.138
 31
0.0
  0
LINE
  8
0
 62
     0
 10
6.40927
 20
131.138
 30
0.0
 11
6.63938
 21
131.592
 31
0.0
  0
LINE
  8
0
 62
     0
 10
6.63938
 20
131.592
 30
0.0
 11
6.71932
 21
132.093
 31
0.0
  0
LINE
  8
0
 62
     0
 10
6.71932
 20
132.093
 30
0.0
 11
6.63938
 21
132.596
 31
0.0
  0
LINE
  8
0
 62
     0
 10
6.63938
 20
132.596
 30
0.0
 11
6.40927
 21
133.049
 31
0.0
  0
LINE
  8
0
 62
     0
 10
6.40927
 20
133.049
 30
0.0
 11
6.04957
 21
133.408
 31
0.0
  0
LINE
  8
0
 62
     0
 10
6.04957
 20
133.408
 30
0.0
 11
5.59622
 21
133.639
 31
0.0
  0
LINE
  8
0
 62
     0
 10
5.59622
 20
133.639
 30
0.0
 11
5.0946
 21
133.718
 31
0.0
  0
LINE
  8
0
 62
     0
 10
5.0946
 20
133.718
 30
0.0
 11
4.59161
 21
133.639
 31
0.0
  0
ENDSEC
  0
EOF
