M48
; DRILL file {KiCad 5.1.2-f72e74a~84~ubuntu18.04.1} date lun 27 may 2019 19:37:14 -05
; FORMAT={-:-/ absolute / inch / decimal}
; #@! TF.CreationDate,2019-05-27T19:37:14-05:00
; #@! TF.GenerationSoftware,Kicad,Pcbnew,5.1.2-f72e74a~84~ubuntu18.04.1
; #@! TF.FileFunction,NonPlated,1,2,NPTH
FMAT,2
INCH
T1C0.0256
T2C0.0689
T3C0.1200
T4C0.1570
%
G90
G05
T1
X1.6762Y-3.7211
X1.9038Y-3.7211
T2
X2.5261Y-5.4998
X2.9261Y-5.4998
X2.1511Y-6.2498
X2.5511Y-6.2498
X7.4011Y-6.2498
X7.8011Y-6.2498
X10.0261Y-6.9998
X10.4261Y-6.9998
X15.0886Y-3.9998
X15.4886Y-3.9998
X15.0886Y-5.1248
X15.4886Y-5.1248
X8.9011Y-6.9998
X9.3011Y-6.9998
X4.0261Y-5.4998
X4.4261Y-5.4998
X3.1824Y-6.9998
X3.5824Y-6.9998
X4.4011Y-6.2498
X4.8011Y-6.2498
X13.5886Y-4.7498
X13.9886Y-4.7498
X14.3386Y-4.7498
X14.7386Y-4.7498
X14.3386Y-5.4998
X14.7386Y-5.4998
X3.0886Y-4.7498
X3.4886Y-4.7498
X14.3386Y-3.9998
X14.7386Y-3.9998
X11.3386Y-3.9998
X11.7386Y-3.9998
X2.9011Y-6.2498
X3.3011Y-6.2498
X3.4636Y-3.9998
X3.8636Y-3.9998
X8.9011Y-6.2498
X9.3011Y-6.2498
X13.5886Y-6.2498
X13.9886Y-6.2498
X14.3386Y-6.2498
X14.7386Y-6.2498
X9.0886Y-4.7498
X9.4886Y-4.7498
X6.0886Y-4.7498
X6.4886Y-4.7498
X2.7136Y-3.9998
X3.1136Y-3.9998
X11.9011Y-7.1873
X12.3011Y-7.1873
X6.8386Y-4.7498
X7.2386Y-4.7498
X5.9948Y-6.9998
X6.3948Y-6.9998
X6.2761Y-5.4998
X6.6761Y-5.4998
X12.6511Y-7.1873
X13.0511Y-7.1873
X4.2136Y-3.9998
X4.6136Y-3.9998
X10.0261Y-5.4998
X10.4261Y-5.4998
X5.9011Y-6.2498
X6.3011Y-6.2498
X11.1511Y-7.1873
X11.5511Y-7.1873
X1.2136Y-3.9998
X1.6136Y-3.9998
X3.2761Y-5.4998
X3.6761Y-5.4998
X4.7761Y-5.4998
X5.1761Y-5.4998
X10.6824Y-6.2498
X11.0824Y-6.2498
X12.8386Y-5.4998
X13.2386Y-5.4998
X2.2449Y-6.9998
X2.6449Y-6.9998
X8.1511Y-6.2498
X8.5511Y-6.2498
X13.5886Y-3.9998
X13.9886Y-3.9998
X7.9636Y-3.9998
X8.3636Y-3.9998
X15.0886Y-6.6248
X15.4886Y-6.6248
X6.4636Y-3.9998
X6.8636Y-3.9998
X11.6198Y-5.1248
X12.0198Y-5.1248
X12.8386Y-3.9998
X13.2386Y-3.9998
X13.5886Y-6.9998
X13.9886Y-6.9998
X7.5886Y-4.7498
X7.9886Y-4.7498
X13.5886Y-5.4998
X13.9886Y-5.4998
X7.7761Y-5.4998
X8.1761Y-5.4998
X1.4949Y-5.4998
X1.8949Y-5.4998
X7.2136Y-3.9998
X7.6136Y-3.9998
X11.9011Y-6.4373
X12.3011Y-6.4373
X6.6511Y-6.2498
X7.0511Y-6.2498
X9.4636Y-3.9998
X9.8636Y-3.9998
X9.8386Y-4.7498
X10.2386Y-4.7498
X9.2761Y-5.4998
X9.6761Y-5.4998
X10.2136Y-3.9998
X10.6136Y-3.9998
X3.8386Y-4.7498
X4.2386Y-4.7498
X12.8386Y-4.7498
X13.2386Y-4.7498
X5.5261Y-5.4998
X5.9261Y-5.4998
X5.3386Y-4.7498
X5.7386Y-4.7498
X8.5261Y-5.4998
X8.9261Y-5.4998
X1.3074Y-6.9998
X1.7074Y-6.9998
X2.3386Y-4.7498
X2.7386Y-4.7498
X10.7761Y-5.4998
X11.1761Y-5.4998
X9.6511Y-6.2498
X10.0511Y-6.2498
X10.5886Y-4.7498
X10.9886Y-4.7498
X4.5886Y-4.7498
X4.9886Y-4.7498
X1.3074Y-6.2498
X1.7074Y-6.2498
X3.6511Y-6.2498
X4.0511Y-6.2498
X1.9636Y-3.9998
X2.3636Y-3.9998
X1.4011Y-4.7498
X1.8011Y-4.7498
X5.7136Y-3.9998
X6.1136Y-3.9998
X4.9636Y-3.9998
X5.3636Y-3.9998
X8.3386Y-4.7498
X8.7386Y-4.7498
X5.1511Y-6.2498
X5.5511Y-6.2498
X12.8386Y-6.2498
X13.2386Y-6.2498
X14.3386Y-6.9998
X14.7386Y-6.9998
X8.7136Y-3.9998
X9.1136Y-3.9998
X7.0261Y-5.4998
X7.4261Y-5.4998
T3
X15.5636Y-4.6561
X15.5636Y-5.5936
X11.0698Y-3.7248
X12.0073Y-3.7248
X4.2263Y-6.7248
X8.1633Y-6.7248
X15.5636Y-6.1561
X15.5636Y-7.0936
X11.5448Y-4.6548
X11.5448Y-5.5948
T4
X10.9761Y-5.4998
X9.8511Y-6.2498
X10.7886Y-4.7498
X4.7886Y-4.7498
X1.5074Y-6.2498
X3.8511Y-6.2498
X2.1636Y-3.9998
X1.6011Y-4.7498
X5.9136Y-3.9998
X5.1636Y-3.9998
X8.5386Y-4.7498
X5.3511Y-6.2498
X13.0386Y-6.2498
X14.5386Y-6.9998
X8.9136Y-3.9998
X7.2261Y-5.4998
X2.7261Y-5.4998
X2.3511Y-6.2498
X7.6011Y-6.2498
X10.2261Y-6.9998
X15.2886Y-3.9998
X14.9636Y-4.6561
X14.9636Y-5.5936
X15.2886Y-5.1248
X9.1011Y-6.9998
X4.2261Y-5.4998
X3.3824Y-6.9998
X4.6011Y-6.2498
X13.7886Y-4.7498
X14.5386Y-4.7498
X14.5386Y-5.4998
X3.2886Y-4.7498
X14.5386Y-3.9998
X11.0698Y-4.3248
X11.5386Y-3.9998
X12.0073Y-4.3248
X3.1011Y-6.2498
X3.6636Y-3.9998
X9.1011Y-6.2498
X13.7886Y-6.2498
X14.5386Y-6.2498
X9.2886Y-4.7498
X6.2886Y-4.7498
X2.9136Y-3.9998
X12.1011Y-7.1873
X7.0386Y-4.7498
X4.2263Y-7.3248
X6.1948Y-6.9998
X8.1633Y-7.3248
X6.4761Y-5.4998
X12.8511Y-7.1873
X4.4136Y-3.9998
X10.2261Y-5.4998
X6.1011Y-6.2498
X11.3511Y-7.1873
X1.4136Y-3.9998
X3.4761Y-5.4998
X4.9761Y-5.4998
X10.8824Y-6.2498
X13.0386Y-5.4998
X2.4449Y-6.9998
X8.3511Y-6.2498
X13.7886Y-3.9998
X8.1636Y-3.9998
X14.9636Y-6.1561
X14.9636Y-7.0936
X15.2886Y-6.6248
X6.6636Y-3.9998
X11.8198Y-5.1248
X12.1448Y-4.6548
X12.1448Y-5.5948
X13.0386Y-3.9998
X13.7886Y-6.9998
X7.7886Y-4.7498
X13.7886Y-5.4998
X7.9761Y-5.4998
X1.6949Y-5.4998
X7.4136Y-3.9998
X12.1011Y-6.4373
X6.8511Y-6.2498
X9.6636Y-3.9998
X10.0386Y-4.7498
X9.4761Y-5.4998
X10.4136Y-3.9998
X4.0386Y-4.7498
X13.0386Y-4.7498
X5.7261Y-5.4998
X5.5386Y-4.7498
X8.7261Y-5.4998
X1.5074Y-6.9998
X2.5386Y-4.7498
T0
M30
