G04 #@! TF.GenerationSoftware,KiCad,Pcbnew,5.1.2-f72e74a~84~ubuntu18.04.1*
G04 #@! TF.CreationDate,2019-05-27T19:37:12-05:00*
G04 #@! TF.ProjectId,1800muente,31383030-6d75-4656-9e74-652e6b696361,rev?*
G04 #@! TF.SameCoordinates,Original*
G04 #@! TF.FileFunction,Profile,NP*
%FSLAX46Y46*%
G04 Gerber Fmt 4.6, Leading zero omitted, Abs format (unit mm)*
G04 Created by KiCad (PCBNEW 5.1.2-f72e74a~84~ubuntu18.04.1) date 2019-05-27 19:37:12*
%MOMM*%
%LPD*%
G04 APERTURE LIST*
%ADD10C,0.200000*%
G04 APERTURE END LIST*
D10*
X118733350Y-192612870D02*
X118238750Y-192534310D01*
X212107150Y-195734115D02*
X212602150Y-195656945D01*
X25663370Y-195075410D02*
X25890750Y-194628930D01*
X304682150Y-193194390D02*
X304454150Y-193640870D01*
X117743850Y-195656945D02*
X118238750Y-195734115D01*
X117297550Y-195428190D02*
X117743850Y-195656945D01*
X305482150Y-192612870D02*
X305036150Y-192840230D01*
X211613150Y-192612870D02*
X211167150Y-192840230D01*
X304454150Y-194628930D02*
X304682150Y-195075410D01*
X398323150Y-194628930D02*
X398552150Y-195075410D01*
X212107150Y-192534310D02*
X211613150Y-192612870D01*
X116717250Y-194628930D02*
X116943350Y-195075410D01*
X118238750Y-195734115D02*
X118733350Y-195656945D01*
X213629150Y-194628930D02*
X213708150Y-194134211D01*
X400785150Y-195428190D02*
X401142150Y-195075410D01*
X401142150Y-195075410D02*
X401367150Y-194628930D01*
X210586150Y-194628930D02*
X210812150Y-195075410D01*
X213629150Y-193640870D02*
X213401150Y-193194390D01*
X23874670Y-195656945D02*
X24369390Y-195734115D01*
X25890750Y-193640870D02*
X25663370Y-193194390D01*
X304377150Y-194134211D02*
X304454150Y-194628930D01*
X306917150Y-192840230D02*
X306470150Y-192612870D01*
X23874670Y-192612870D02*
X23429570Y-192840230D01*
X213048150Y-195428190D02*
X213401150Y-195075410D01*
X23075414Y-193194390D02*
X22848035Y-193640870D01*
X400785150Y-192840230D02*
X400341150Y-192612870D01*
X211613150Y-195656945D02*
X212107150Y-195734115D01*
X210586150Y-193640870D02*
X210508150Y-194134211D01*
X401367150Y-193640870D02*
X401142150Y-193194390D01*
X398245150Y-194134211D02*
X398323150Y-194628930D01*
X119178550Y-195428190D02*
X119532750Y-195075410D01*
X23429570Y-195428190D02*
X23874670Y-195656945D01*
X398552150Y-195075410D02*
X398905150Y-195428190D01*
X305036150Y-195428190D02*
X305482150Y-195656945D01*
X305977150Y-192534310D02*
X305482150Y-192612870D01*
X307271150Y-193194390D02*
X306917150Y-192840230D01*
X24369390Y-192534310D02*
X23874670Y-192612870D01*
X211167150Y-195428190D02*
X211613150Y-195656945D01*
X401142150Y-193194390D02*
X400785150Y-192840230D01*
X24369390Y-88521050D02*
X23874670Y-88600050D01*
X24864110Y-88600050D02*
X24369390Y-88521050D01*
X25309210Y-88827050D02*
X24864110Y-88600050D01*
X25663370Y-89182050D02*
X25309210Y-88827050D01*
X25890750Y-89626050D02*
X25663370Y-89182050D01*
X25969310Y-90121050D02*
X25890750Y-89626050D01*
X25890750Y-90616050D02*
X25969310Y-90121050D01*
X25663370Y-91061050D02*
X25890750Y-90616050D01*
X25309210Y-91415050D02*
X25663370Y-91061050D01*
X24864110Y-91642050D02*
X25309210Y-91415050D01*
X24369390Y-91721050D02*
X24864110Y-91642050D01*
X23874670Y-91642050D02*
X24369390Y-91721050D01*
X23429570Y-91415050D02*
X23874670Y-91642050D01*
X23075414Y-91061050D02*
X23429570Y-91415050D01*
X22848035Y-90616050D02*
X23075414Y-91061050D01*
X22769489Y-90121050D02*
X22848035Y-90616050D01*
X22848035Y-89626050D02*
X22769489Y-90121050D01*
X23075414Y-89182050D02*
X22848035Y-89626050D01*
X23429570Y-88827050D02*
X23075414Y-89182050D01*
X23874670Y-88600050D02*
X23429570Y-88827050D01*
X399847150Y-88521050D02*
X399353150Y-88600050D01*
X400341150Y-88600050D02*
X399847150Y-88521050D01*
X400785150Y-88827050D02*
X400341150Y-88600050D01*
X401142150Y-89182050D02*
X400785150Y-88827050D01*
X401367150Y-89626050D02*
X401142150Y-89182050D01*
X401445150Y-90121050D02*
X401367150Y-89626050D01*
X401367150Y-90616050D02*
X401445150Y-90121050D01*
X401142150Y-91061050D02*
X401367150Y-90616050D01*
X400785150Y-91415050D02*
X401142150Y-91061050D01*
X400341150Y-91642050D02*
X400785150Y-91415050D01*
X399847150Y-91721050D02*
X400341150Y-91642050D01*
X399353150Y-91642050D02*
X399847150Y-91721050D01*
X398905150Y-91415050D02*
X399353150Y-91642050D01*
X398552150Y-91061050D02*
X398905150Y-91415050D01*
X398323150Y-90616050D02*
X398552150Y-91061050D01*
X398245150Y-90121050D02*
X398323150Y-90616050D01*
X398323150Y-89626050D02*
X398245150Y-90121050D01*
X398552150Y-89182050D02*
X398323150Y-89626050D01*
X398905150Y-88827050D02*
X398552150Y-89182050D01*
X399353150Y-88600050D02*
X398905150Y-88827050D01*
X305977150Y-88521050D02*
X305482150Y-88600050D01*
X306470150Y-88600050D02*
X305977150Y-88521050D01*
X306917150Y-88827050D02*
X306470150Y-88600050D01*
X307271150Y-89182050D02*
X306917150Y-88827050D01*
X307498150Y-89626050D02*
X307271150Y-89182050D01*
X307577150Y-90121050D02*
X307498150Y-89626050D01*
X307498150Y-90616050D02*
X307577150Y-90121050D01*
X307271150Y-91061050D02*
X307498150Y-90616050D01*
X306917150Y-91415050D02*
X307271150Y-91061050D01*
X306470150Y-91642050D02*
X306917150Y-91415050D01*
X305977150Y-91721050D02*
X306470150Y-91642050D01*
X305482150Y-91642050D02*
X305977150Y-91721050D01*
X305036150Y-91415050D02*
X305482150Y-91642050D01*
X304682150Y-91061050D02*
X305036150Y-91415050D01*
X304454150Y-90616050D02*
X304682150Y-91061050D01*
X304377150Y-90121050D02*
X304454150Y-90616050D01*
X304454150Y-89626050D02*
X304377150Y-90121050D01*
X304682150Y-89182050D02*
X304454150Y-89626050D01*
X305036150Y-88827050D02*
X304682150Y-89182050D01*
X305482150Y-88600050D02*
X305036150Y-88827050D01*
X212107150Y-88521050D02*
X211613150Y-88600050D01*
X212602150Y-88600050D02*
X212107150Y-88521050D01*
X213048150Y-88827050D02*
X212602150Y-88600050D01*
X213401150Y-89182050D02*
X213048150Y-88827050D01*
X213629150Y-89626050D02*
X213401150Y-89182050D01*
X213708150Y-90121050D02*
X213629150Y-89626050D01*
X213629150Y-90616050D02*
X213708150Y-90121050D01*
X213401150Y-91061050D02*
X213629150Y-90616050D01*
X213048150Y-91415050D02*
X213401150Y-91061050D01*
X212602150Y-91642050D02*
X213048150Y-91415050D01*
X212107150Y-91721050D02*
X212602150Y-91642050D01*
X211613150Y-91642050D02*
X212107150Y-91721050D01*
X211167150Y-91415050D02*
X211613150Y-91642050D01*
X210812150Y-91061050D02*
X211167150Y-91415050D01*
X210586150Y-90616050D02*
X210812150Y-91061050D01*
X210508150Y-90121050D02*
X210586150Y-90616050D01*
X210586150Y-89626050D02*
X210508150Y-90121050D01*
X210812150Y-89182050D02*
X210586150Y-89626050D01*
X211167150Y-88827050D02*
X210812150Y-89182050D01*
X211613150Y-88600050D02*
X211167150Y-88827050D01*
X118238750Y-88521050D02*
X117743850Y-88600050D01*
X118733350Y-88600050D02*
X118238750Y-88521050D01*
X119178550Y-88827050D02*
X118733350Y-88600050D01*
X119532750Y-89182050D02*
X119178550Y-88827050D01*
X119759950Y-89626050D02*
X119532750Y-89182050D01*
X119838650Y-90121050D02*
X119759950Y-89626050D01*
X119759950Y-90616050D02*
X119838650Y-90121050D01*
X119532750Y-91061050D02*
X119759950Y-90616050D01*
X119178550Y-91415050D02*
X119532750Y-91061050D01*
X118733350Y-91642050D02*
X119178550Y-91415050D01*
X118238750Y-91721050D02*
X118733350Y-91642050D01*
X117743850Y-91642050D02*
X118238750Y-91721050D01*
X117297550Y-91415050D02*
X117743850Y-91642050D01*
X116943350Y-91061050D02*
X117297550Y-91415050D01*
X116717250Y-90616050D02*
X116943350Y-91061050D01*
X116638550Y-90121050D02*
X116717250Y-90616050D01*
X116717250Y-89626050D02*
X116638550Y-90121050D01*
X116943350Y-89182050D02*
X116717250Y-89626050D01*
X117297550Y-88827050D02*
X116943350Y-89182050D01*
X117743850Y-88600050D02*
X117297550Y-88827050D01*
X24369390Y-140527350D02*
X23874670Y-140607050D01*
X24864110Y-140607050D02*
X24369390Y-140527350D01*
X25309210Y-140834550D02*
X24864110Y-140607050D01*
X25663370Y-141187350D02*
X25309210Y-140834550D01*
X25890750Y-141633650D02*
X25663370Y-141187350D01*
X25969310Y-142128550D02*
X25890750Y-141633650D01*
X25890750Y-142623150D02*
X25969310Y-142128550D01*
X25663370Y-143068350D02*
X25890750Y-142623150D01*
X25309210Y-143422550D02*
X25663370Y-143068350D01*
X24864110Y-143649750D02*
X25309210Y-143422550D01*
X24369390Y-143728450D02*
X24864110Y-143649750D01*
X23874670Y-143649750D02*
X24369390Y-143728450D01*
X23429570Y-143422550D02*
X23874670Y-143649750D01*
X23075414Y-143068350D02*
X23429570Y-143422550D01*
X22848035Y-142623150D02*
X23075414Y-143068350D01*
X22769489Y-142128550D02*
X22848035Y-142623150D01*
X22848035Y-141633650D02*
X22769489Y-142128550D01*
X23075414Y-141187350D02*
X22848035Y-141633650D01*
X23429570Y-140834550D02*
X23075414Y-141187350D01*
X23874670Y-140607050D02*
X23429570Y-140834550D01*
X399847150Y-140527350D02*
X399353150Y-140607050D01*
X400341150Y-140607050D02*
X399847150Y-140527350D01*
X400785150Y-140834550D02*
X400341150Y-140607050D01*
X401142150Y-141187350D02*
X400785150Y-140834550D01*
X401367150Y-141633650D02*
X401142150Y-141187350D01*
X401445150Y-142128550D02*
X401367150Y-141633650D01*
X401367150Y-142623150D02*
X401445150Y-142128550D01*
X401142150Y-143068350D02*
X401367150Y-142623150D01*
X400785150Y-143422550D02*
X401142150Y-143068350D01*
X400341150Y-143649750D02*
X400785150Y-143422550D01*
X399847150Y-143728450D02*
X400341150Y-143649750D01*
X399353150Y-143649750D02*
X399847150Y-143728450D01*
X398905150Y-143422550D02*
X399353150Y-143649750D01*
X398552150Y-143068350D02*
X398905150Y-143422550D01*
X398323150Y-142623150D02*
X398552150Y-143068350D01*
X398245150Y-142128550D02*
X398323150Y-142623150D01*
X398323150Y-141633650D02*
X398245150Y-142128550D01*
X398552150Y-141187350D02*
X398323150Y-141633650D01*
X398905150Y-140834550D02*
X398552150Y-141187350D01*
X399353150Y-140607050D02*
X398905150Y-140834550D01*
X401445150Y-194134211D02*
X401367150Y-193640870D01*
X212602150Y-195656945D02*
X213048150Y-195428190D01*
X22369856Y-196135124D02*
X22369856Y-88122050D01*
X22769489Y-194134211D02*
X22848035Y-194628930D01*
X119759950Y-194628930D02*
X119838650Y-194134211D01*
X119759950Y-193640870D02*
X119532750Y-193194390D01*
X211167150Y-192840230D02*
X210812150Y-193194390D01*
X304454150Y-193640870D02*
X304377150Y-194134211D01*
X23429570Y-192840230D02*
X23075414Y-193194390D01*
X306917150Y-195428190D02*
X307271150Y-195075410D01*
X23075414Y-195075410D02*
X23429570Y-195428190D01*
X305977150Y-195734115D02*
X306470150Y-195656945D01*
X305036150Y-192840230D02*
X304682150Y-193194390D01*
X400341150Y-195656945D02*
X400785150Y-195428190D01*
X307498150Y-193640870D02*
X307271150Y-193194390D01*
X398905150Y-195428190D02*
X399353150Y-195656945D01*
X116638550Y-194134211D02*
X116717250Y-194628930D01*
X116717250Y-193640870D02*
X116638550Y-194134211D01*
X212602150Y-192612870D02*
X212107150Y-192534310D01*
X401367150Y-194628930D02*
X401445150Y-194134211D01*
X304682150Y-195075410D02*
X305036150Y-195428190D01*
X22848035Y-194628930D02*
X23075414Y-195075410D01*
X306470150Y-192612870D02*
X305977150Y-192534310D01*
X119532750Y-195075410D02*
X119759950Y-194628930D01*
X306470150Y-195656945D02*
X306917150Y-195428190D01*
X210812150Y-195075410D02*
X211167150Y-195428190D01*
X25969310Y-194134211D02*
X25890750Y-193640870D01*
X24864110Y-192612870D02*
X24369390Y-192534310D01*
X213401150Y-195075410D02*
X213629150Y-194628930D01*
X398323150Y-193640870D02*
X398245150Y-194134211D01*
X22848035Y-193640870D02*
X22769489Y-194134211D01*
X116943350Y-193194390D02*
X116717250Y-193640870D01*
X210812150Y-193194390D02*
X210586150Y-193640870D01*
X22369856Y-88122050D02*
X401847150Y-88122050D01*
X213401150Y-193194390D02*
X213048150Y-192840230D01*
X399847150Y-192534310D02*
X399353150Y-192612870D01*
X119532750Y-193194390D02*
X119178550Y-192840230D01*
X117297550Y-192840230D02*
X116943350Y-193194390D01*
X25309210Y-195428190D02*
X25663370Y-195075410D01*
X118238750Y-192534310D02*
X117743850Y-192612870D01*
X116943350Y-195075410D02*
X117297550Y-195428190D01*
X119178550Y-192840230D02*
X118733350Y-192612870D01*
X398552150Y-193194390D02*
X398323150Y-193640870D01*
X401847150Y-88122050D02*
X401847150Y-196135124D01*
X25663370Y-193194390D02*
X25309210Y-192840230D01*
X305482150Y-195656945D02*
X305977150Y-195734115D01*
X307577150Y-194134211D02*
X307498150Y-193640870D01*
X398905150Y-192840230D02*
X398552150Y-193194390D01*
X400341150Y-192612870D02*
X399847150Y-192534310D01*
X401847150Y-196135124D02*
X22369856Y-196135124D01*
X307271150Y-195075410D02*
X307498150Y-194628930D01*
X213708150Y-194134211D02*
X213629150Y-193640870D01*
X25890750Y-194628930D02*
X25969310Y-194134211D01*
X399847150Y-195734115D02*
X400341150Y-195656945D01*
X118733350Y-195656945D02*
X119178550Y-195428190D01*
X24369390Y-195734115D02*
X24864110Y-195656945D01*
X213048150Y-192840230D02*
X212602150Y-192612870D01*
X117743850Y-192612870D02*
X117297550Y-192840230D01*
X399353150Y-195656945D02*
X399847150Y-195734115D01*
X25309210Y-192840230D02*
X24864110Y-192612870D01*
X210508150Y-194134211D02*
X210586150Y-194628930D01*
X307498150Y-194628930D02*
X307577150Y-194134211D01*
X24864110Y-195656945D02*
X25309210Y-195428190D01*
X399353150Y-192612870D02*
X398905150Y-192840230D01*
X119838650Y-194134211D02*
X119759950Y-193640870D01*
M02*
