G04 #@! TF.GenerationSoftware,KiCad,Pcbnew,5.1.2-f72e74a~84~ubuntu18.04.1*
G04 #@! TF.CreationDate,2019-05-27T19:37:11-05:00*
G04 #@! TF.ProjectId,1800muente,31383030-6d75-4656-9e74-652e6b696361,rev?*
G04 #@! TF.SameCoordinates,Original*
G04 #@! TF.FileFunction,Copper,L1,Top*
G04 #@! TF.FilePolarity,Positive*
%FSLAX46Y46*%
G04 Gerber Fmt 4.6, Leading zero omitted, Abs format (unit mm)*
G04 Created by KiCad (PCBNEW 5.1.2-f72e74a~84~ubuntu18.04.1) date 2019-05-27 19:37:11*
%MOMM*%
%LPD*%
G04 APERTURE LIST*
%ADD10C,2.250000*%
%ADD11R,1.905000X1.905000*%
%ADD12C,1.905000*%
%ADD13O,1.000000X2.100000*%
%ADD14O,1.000000X1.600000*%
%ADD15R,1.752600X1.752600*%
%ADD16C,1.752600*%
%ADD17C,1.651000*%
%ADD18O,1.700000X1.700000*%
%ADD19R,1.700000X1.700000*%
%ADD20R,1.651000X1.651000*%
%ADD21C,0.800000*%
%ADD22C,0.250000*%
G04 APERTURE END LIST*
D10*
X390870000Y-163190000D03*
X384520000Y-165730000D03*
X390870000Y-125090000D03*
X384520000Y-127630000D03*
X159889000Y-172715000D03*
X153539000Y-175255000D03*
X233708000Y-172715000D03*
X227358000Y-175255000D03*
X262283000Y-172715000D03*
X255933000Y-175255000D03*
X278952000Y-153665000D03*
X272602000Y-156205000D03*
D11*
X301494000Y-135250000D03*
D12*
X298954000Y-135250000D03*
D10*
X296414000Y-127630000D03*
X302764000Y-125090000D03*
X295620000Y-96515000D03*
X289270000Y-99055000D03*
X40826700Y-153665000D03*
X34476700Y-156205000D03*
X88451700Y-172715000D03*
X82101700Y-175255000D03*
X64639200Y-172715000D03*
X58289200Y-175255000D03*
X40826700Y-172715000D03*
X34476700Y-175255000D03*
X45589200Y-134615000D03*
X39239200Y-137155000D03*
X43207900Y-115565000D03*
X36857900Y-118105000D03*
D13*
X41146000Y-95045000D03*
X49786000Y-95045000D03*
D14*
X41146000Y-90865000D03*
X49786000Y-90865000D03*
D10*
X143220000Y-115565000D03*
X136870000Y-118105000D03*
X171795000Y-96515000D03*
X165445000Y-99055000D03*
X167033000Y-134615000D03*
X160683000Y-137155000D03*
X138458000Y-153665000D03*
X132108000Y-156205000D03*
X95595400Y-96515000D03*
X89245400Y-99055000D03*
X71782900Y-134615000D03*
X65432900Y-137155000D03*
X186083000Y-134615000D03*
X179733000Y-137155000D03*
X181320000Y-115565000D03*
X174970000Y-118105000D03*
X147983000Y-134615000D03*
X141633000Y-137155000D03*
X190845000Y-96515000D03*
X184495000Y-99055000D03*
X333720000Y-96515000D03*
X327370000Y-99055000D03*
X157508000Y-153665000D03*
X151158000Y-156205000D03*
X152745000Y-96515000D03*
X146395000Y-99055000D03*
X333720000Y-153665000D03*
X327370000Y-156205000D03*
X309908000Y-158427000D03*
X303558000Y-160967000D03*
X290858000Y-177477000D03*
X284508000Y-180017000D03*
X209895000Y-96515000D03*
X203545000Y-99055000D03*
X281333000Y-134615000D03*
X274983000Y-137155000D03*
X214658000Y-153665000D03*
X208308000Y-156205000D03*
X224183000Y-134615000D03*
X217833000Y-137155000D03*
X371820000Y-153665000D03*
X365470000Y-156205000D03*
X238470000Y-115565000D03*
X232120000Y-118105000D03*
X352770000Y-115565000D03*
X346420000Y-118105000D03*
X371820000Y-134615000D03*
X365470000Y-137155000D03*
X114645000Y-96515000D03*
X108295000Y-99055000D03*
X252758000Y-153665000D03*
X246408000Y-156205000D03*
X81307900Y-153665000D03*
X74957900Y-156205000D03*
X390870000Y-96515000D03*
X384520000Y-99055000D03*
X90832900Y-134615000D03*
X84482900Y-137155000D03*
X133695000Y-96515000D03*
X127345000Y-99055000D03*
X67020400Y-115565000D03*
X60670400Y-118105000D03*
X176558000Y-153665000D03*
X170208000Y-156205000D03*
X124170000Y-115565000D03*
X117820000Y-118105000D03*
X86070400Y-115565000D03*
X79720400Y-118105000D03*
X162270000Y-115565000D03*
X155920000Y-118105000D03*
X38445400Y-96515000D03*
X32095400Y-99055000D03*
X309908000Y-177477000D03*
X303558000Y-180017000D03*
X109883000Y-134615000D03*
X103533000Y-137155000D03*
X267045000Y-96515000D03*
X260695000Y-99055000D03*
X352770000Y-96515000D03*
X346420000Y-99055000D03*
X371820000Y-115565000D03*
X365470000Y-118105000D03*
X371820000Y-96515000D03*
X365470000Y-99055000D03*
X352770000Y-134615000D03*
X346420000Y-137155000D03*
X257520000Y-115565000D03*
X251170000Y-118105000D03*
X100357900Y-153665000D03*
X94007900Y-156205000D03*
X219420000Y-115565000D03*
X213070000Y-118105000D03*
X243233000Y-134615000D03*
X236883000Y-137155000D03*
X371820000Y-172715000D03*
X365470000Y-175255000D03*
X228945000Y-96515000D03*
X222595000Y-99055000D03*
X352770000Y-153665000D03*
X346420000Y-156205000D03*
X352770000Y-172715000D03*
X346420000Y-175255000D03*
X328958000Y-177477000D03*
X322608000Y-180017000D03*
X262283000Y-134615000D03*
X255933000Y-137155000D03*
X200370000Y-115565000D03*
X194020000Y-118105000D03*
X233708000Y-153665000D03*
X227358000Y-156205000D03*
X128933000Y-134615000D03*
X122583000Y-137155000D03*
X247995000Y-96515000D03*
X241645000Y-99055000D03*
X119408000Y-153665000D03*
X113058000Y-156205000D03*
X276570000Y-115565000D03*
X270220000Y-118105000D03*
X57495400Y-96515000D03*
X51145400Y-99055000D03*
X62257900Y-153665000D03*
X55907900Y-156205000D03*
X333720000Y-134615000D03*
X327370000Y-137155000D03*
X105120000Y-115565000D03*
X98770000Y-118105000D03*
X76545400Y-96515000D03*
X70195400Y-99055000D03*
X333720000Y-115565000D03*
X327370000Y-118105000D03*
X195608000Y-153665000D03*
X189258000Y-156205000D03*
X205133000Y-134615000D03*
X198783000Y-137155000D03*
D15*
X77311200Y-128371600D03*
D16*
X79851200Y-127914400D03*
X82391200Y-128371600D03*
X84931200Y-127914400D03*
X87471200Y-128371600D03*
X90011200Y-127914400D03*
X92551200Y-128371600D03*
X95091200Y-127914400D03*
X97631200Y-128371600D03*
X100171200Y-127914400D03*
X102711200Y-128371600D03*
X105251200Y-113131600D03*
X102711200Y-112674400D03*
X100171200Y-113131600D03*
X97631200Y-112674400D03*
X95091200Y-113131600D03*
X92551200Y-112674400D03*
X90011200Y-113131600D03*
X87471200Y-112674400D03*
X84931200Y-113131600D03*
X82391200Y-112674400D03*
X79851200Y-113131600D03*
X105251200Y-127914400D03*
X77311200Y-112674400D03*
D17*
X57150000Y-131445000D03*
X57150000Y-141605000D03*
X54229000Y-131445000D03*
X54229000Y-141605000D03*
D18*
X53086000Y-123825000D03*
X53086000Y-121285000D03*
X53086000Y-118745000D03*
D19*
X53086000Y-116205000D03*
D17*
X203545000Y-109215000D03*
D20*
X211165000Y-109215000D03*
D17*
X36857900Y-128265000D03*
D20*
X44477900Y-128265000D03*
D17*
X39239200Y-147315000D03*
D20*
X46859200Y-147315000D03*
X268315000Y-109215000D03*
D17*
X260695000Y-109215000D03*
D20*
X173065000Y-109215000D03*
D17*
X165445000Y-109215000D03*
X108295000Y-107156000D03*
D20*
X115915000Y-107156000D03*
X263553000Y-185415000D03*
D17*
X255933000Y-185415000D03*
X55907900Y-166365000D03*
D20*
X63527900Y-166365000D03*
X296890000Y-109215000D03*
D17*
X289270000Y-109215000D03*
D20*
X249265000Y-109215000D03*
D17*
X241645000Y-109215000D03*
D20*
X120678000Y-166365000D03*
D17*
X113058000Y-166365000D03*
X251170000Y-128265000D03*
D20*
X258790000Y-128265000D03*
X65909200Y-185415000D03*
D17*
X58289200Y-185415000D03*
X82101700Y-185415000D03*
D20*
X89721700Y-185415000D03*
X354040000Y-166365000D03*
D17*
X346420000Y-166365000D03*
X303558000Y-171127000D03*
D20*
X311178000Y-171127000D03*
X373090000Y-109215000D03*
D17*
X365470000Y-109215000D03*
X117820000Y-128265000D03*
D20*
X125440000Y-128265000D03*
D17*
X227358000Y-185415000D03*
D20*
X234978000Y-185415000D03*
X201640000Y-128265000D03*
D17*
X194020000Y-128265000D03*
X346420000Y-185415000D03*
D20*
X354040000Y-185415000D03*
D17*
X303558000Y-190177000D03*
D20*
X311178000Y-190177000D03*
D17*
X222595000Y-109215000D03*
D20*
X230215000Y-109215000D03*
X96865400Y-107156000D03*
D17*
X89245400Y-107156000D03*
D20*
X134965000Y-109215000D03*
D17*
X127345000Y-109215000D03*
X32095400Y-109215000D03*
D20*
X39715400Y-109215000D03*
D17*
X198783000Y-147315000D03*
D20*
X206403000Y-147315000D03*
D17*
X346420000Y-109215000D03*
D20*
X354040000Y-109215000D03*
X334990000Y-109215000D03*
D17*
X327370000Y-109215000D03*
X365470000Y-128265000D03*
D20*
X373090000Y-128265000D03*
D17*
X184495000Y-109215000D03*
D20*
X192115000Y-109215000D03*
D17*
X272602000Y-166365000D03*
D20*
X280222000Y-166365000D03*
X392140000Y-175890000D03*
D17*
X384520000Y-175890000D03*
X365470000Y-147315000D03*
D20*
X373090000Y-147315000D03*
X177828000Y-166365000D03*
D17*
X170208000Y-166365000D03*
D20*
X373090000Y-185415000D03*
D17*
X365470000Y-185415000D03*
D20*
X304034000Y-137790000D03*
D17*
X296414000Y-137790000D03*
X270220000Y-128265000D03*
D20*
X277840000Y-128265000D03*
X163540000Y-128265000D03*
D17*
X155920000Y-128265000D03*
X70195400Y-107156000D03*
D20*
X77815400Y-107156000D03*
D17*
X34476700Y-166365000D03*
D20*
X42096700Y-166365000D03*
D17*
X174970000Y-128265000D03*
D20*
X182590000Y-128265000D03*
X234978000Y-166365000D03*
D17*
X227358000Y-166365000D03*
X236883000Y-147315000D03*
D20*
X244503000Y-147315000D03*
X239740000Y-128265000D03*
D17*
X232120000Y-128265000D03*
D20*
X196878000Y-166365000D03*
D17*
X189258000Y-166365000D03*
D20*
X187353000Y-147315000D03*
D17*
X179733000Y-147315000D03*
X213070000Y-128265000D03*
D20*
X220690000Y-128265000D03*
D17*
X274983000Y-147315000D03*
D20*
X282603000Y-147315000D03*
D17*
X208308000Y-166365000D03*
D20*
X215928000Y-166365000D03*
D17*
X151158000Y-166365000D03*
D20*
X158778000Y-166365000D03*
X263553000Y-147315000D03*
D17*
X255933000Y-147315000D03*
D20*
X354040000Y-147315000D03*
D17*
X346420000Y-147315000D03*
D20*
X161159000Y-185415000D03*
D17*
X153539000Y-185415000D03*
X141633000Y-147315000D03*
D20*
X149253000Y-147315000D03*
D17*
X346420000Y-128265000D03*
D20*
X354040000Y-128265000D03*
D17*
X146395000Y-109215000D03*
D20*
X154015000Y-109215000D03*
X111153000Y-147315000D03*
D17*
X103533000Y-147315000D03*
X98770000Y-130969000D03*
D20*
X106390000Y-130969000D03*
X87340400Y-130969000D03*
D17*
X79720400Y-130969000D03*
D20*
X392140000Y-137790000D03*
D17*
X384520000Y-137790000D03*
D20*
X392140000Y-109215000D03*
D17*
X384520000Y-109215000D03*
X65432900Y-147315000D03*
D20*
X73052900Y-147315000D03*
X144490000Y-128265000D03*
D17*
X136870000Y-128265000D03*
D20*
X292128000Y-190177000D03*
D17*
X284508000Y-190177000D03*
D20*
X334990000Y-128265000D03*
D17*
X327370000Y-128265000D03*
D20*
X334990000Y-147315000D03*
D17*
X327370000Y-147315000D03*
D20*
X42096700Y-185415000D03*
D17*
X34476700Y-185415000D03*
X84482900Y-147315000D03*
D20*
X92102900Y-147315000D03*
X82577900Y-166365000D03*
D17*
X74957900Y-166365000D03*
D20*
X101627900Y-166365000D03*
D17*
X94007900Y-166365000D03*
D20*
X330228000Y-190177000D03*
D17*
X322608000Y-190177000D03*
X60670400Y-128265000D03*
D20*
X68290400Y-128265000D03*
D17*
X246408000Y-166365000D03*
D20*
X254028000Y-166365000D03*
D17*
X51145400Y-109215000D03*
D20*
X58765400Y-109215000D03*
X373090000Y-166365000D03*
D17*
X365470000Y-166365000D03*
X122583000Y-147315000D03*
D20*
X130203000Y-147315000D03*
D17*
X217833000Y-147315000D03*
D20*
X225453000Y-147315000D03*
X168303000Y-147315000D03*
D17*
X160683000Y-147315000D03*
X327370000Y-166365000D03*
D20*
X334990000Y-166365000D03*
D17*
X132108000Y-166365000D03*
D20*
X139728000Y-166365000D03*
D21*
X233570400Y-111955900D03*
X256114100Y-163384200D03*
X47216000Y-94361300D03*
D22*
X184495000Y-109215000D02*
X187235900Y-111955900D01*
X187235900Y-111955900D02*
X233570400Y-111955900D01*
X77311200Y-128371600D02*
X78512800Y-128371600D01*
X78512800Y-128371600D02*
X78512800Y-127545500D01*
X78512800Y-127545500D02*
X82797000Y-123261300D01*
X82797000Y-123261300D02*
X84218200Y-123261300D01*
X84218200Y-123261300D02*
X93821200Y-113658300D01*
X93821200Y-113658300D02*
X93821200Y-112629600D01*
X93821200Y-112629600D02*
X96264700Y-110186100D01*
X96264700Y-110186100D02*
X124640100Y-110186100D01*
X124640100Y-110186100D02*
X126774700Y-108051500D01*
X126774700Y-108051500D02*
X127890100Y-108051500D01*
X127890100Y-108051500D02*
X130204400Y-110365800D01*
X130204400Y-110365800D02*
X145244200Y-110365800D01*
X145244200Y-110365800D02*
X146395000Y-109215000D01*
X327370000Y-109215000D02*
X328876200Y-110721200D01*
X328876200Y-110721200D02*
X328876200Y-119566500D01*
X328876200Y-119566500D02*
X328787400Y-119655300D01*
X328787400Y-119655300D02*
X328787400Y-127342400D01*
X328787400Y-127342400D02*
X335220100Y-133775100D01*
X335220100Y-133775100D02*
X335220100Y-138823900D01*
X335220100Y-138823900D02*
X335029000Y-139015000D01*
X335029000Y-139015000D02*
X335029000Y-141539700D01*
X335029000Y-141539700D02*
X343398400Y-149909100D01*
X343398400Y-149909100D02*
X343398400Y-182393400D01*
X343398400Y-182393400D02*
X346420000Y-185415000D01*
X39080400Y-97149900D02*
X39080300Y-97149900D01*
X39080300Y-97149900D02*
X38445400Y-96515000D01*
X39080400Y-97149900D02*
X39715400Y-97784900D01*
X39715400Y-97784900D02*
X39715400Y-109215000D01*
X38445400Y-96514900D02*
X39080400Y-97149900D01*
X43207900Y-115565000D02*
X44332900Y-116690000D01*
X44332900Y-116690000D02*
X44332900Y-124831000D01*
X44332900Y-124831000D02*
X44477900Y-124976000D01*
X44477900Y-124976000D02*
X44477900Y-128265000D01*
X194020000Y-128265000D02*
X195170900Y-129415900D01*
X195170900Y-129415900D02*
X212834700Y-129415900D01*
X212834700Y-129415900D02*
X220752600Y-137333800D01*
X220752600Y-137333800D02*
X226901800Y-137333800D01*
X226901800Y-137333800D02*
X236883000Y-147315000D01*
X155920000Y-128265000D02*
X157070900Y-127114100D01*
X157070900Y-127114100D02*
X192869100Y-127114100D01*
X192869100Y-127114100D02*
X194020000Y-128265000D01*
X70195400Y-107156000D02*
X71346300Y-108306900D01*
X71346300Y-108306900D02*
X107144100Y-108306900D01*
X107144100Y-108306900D02*
X108295000Y-107156000D01*
X117820000Y-128265000D02*
X115780700Y-126225700D01*
X115780700Y-126225700D02*
X98018100Y-126225700D01*
X98018100Y-126225700D02*
X96361200Y-127882600D01*
X96361200Y-127882600D02*
X96361200Y-128413700D01*
X96361200Y-128413700D02*
X95197300Y-129577600D01*
X95197300Y-129577600D02*
X88677200Y-129577600D01*
X88677200Y-129577600D02*
X87471200Y-128371600D01*
X160683000Y-147315000D02*
X161833900Y-146164100D01*
X161833900Y-146164100D02*
X197632100Y-146164100D01*
X197632100Y-146164100D02*
X198783000Y-147315000D01*
X227358000Y-166365000D02*
X230338800Y-163384200D01*
X230338800Y-163384200D02*
X256114100Y-163384200D01*
X79720400Y-130969000D02*
X84873800Y-130969000D01*
X84873800Y-130969000D02*
X87471200Y-128371600D01*
X45589200Y-134615000D02*
X46863000Y-135889000D01*
X46863000Y-135889000D02*
X46859200Y-135893000D01*
X46859200Y-135893000D02*
X46859200Y-147315000D01*
X189258000Y-166365000D02*
X203007300Y-180114300D01*
X203007300Y-180114300D02*
X222057300Y-180114300D01*
X222057300Y-180114300D02*
X227358000Y-185415000D01*
X189258000Y-166365000D02*
X187653300Y-167969700D01*
X187653300Y-167969700D02*
X152762700Y-167969700D01*
X152762700Y-167969700D02*
X151158000Y-166365000D01*
X122583000Y-147315000D02*
X120954400Y-148943600D01*
X120954400Y-148943600D02*
X86111500Y-148943600D01*
X86111500Y-148943600D02*
X84482900Y-147315000D01*
X40826700Y-153665000D02*
X42096700Y-154935000D01*
X42096700Y-154935000D02*
X42096700Y-166365000D01*
X40826700Y-172715000D02*
X42291000Y-174179000D01*
X42291000Y-174179000D02*
X42096700Y-174374000D01*
X42096700Y-174374000D02*
X42096700Y-185415000D01*
X74957900Y-166365000D02*
X76108800Y-167515900D01*
X76108800Y-167515900D02*
X111907100Y-167515900D01*
X111907100Y-167515900D02*
X113058000Y-166365000D01*
X203545000Y-109215000D02*
X204695900Y-110365900D01*
X204695900Y-110365900D02*
X240494100Y-110365900D01*
X240494100Y-110365900D02*
X241645000Y-109215000D01*
X251170000Y-128265000D02*
X250019100Y-129415900D01*
X250019100Y-129415900D02*
X214220900Y-129415900D01*
X214220900Y-129415900D02*
X213070000Y-128265000D01*
X127345000Y-110703500D02*
X97848500Y-110703500D01*
X97848500Y-110703500D02*
X96428700Y-112123300D01*
X96428700Y-112123300D02*
X96428700Y-119921300D01*
X96428700Y-119921300D02*
X95091200Y-121258800D01*
X95091200Y-121258800D02*
X95091200Y-127914400D01*
X165445000Y-109215000D02*
X163843900Y-110816100D01*
X163843900Y-110816100D02*
X127457600Y-110816100D01*
X127457600Y-110816100D02*
X127345000Y-110703500D01*
X127345000Y-109215000D02*
X127345000Y-110703500D01*
X365470000Y-185415000D02*
X359277900Y-179222900D01*
X359277900Y-179222900D02*
X359277900Y-138481300D01*
X359277900Y-138481300D02*
X347870500Y-127073900D01*
X347870500Y-127073900D02*
X347870500Y-110665500D01*
X347870500Y-110665500D02*
X346420000Y-109215000D01*
X58165400Y-97184900D02*
X58165300Y-97184900D01*
X58165300Y-97184900D02*
X57495400Y-96515000D01*
X58165400Y-97184900D02*
X58835400Y-97854900D01*
X58835400Y-97854900D02*
X58835400Y-105190000D01*
X58835400Y-105190000D02*
X58765400Y-105260000D01*
X58765400Y-105260000D02*
X58765400Y-109215000D01*
X57495400Y-96514900D02*
X58165400Y-97184900D01*
X97631200Y-128371600D02*
X93883000Y-132119800D01*
X93883000Y-132119800D02*
X64525200Y-132119800D01*
X64525200Y-132119800D02*
X60670400Y-128265000D01*
X136870000Y-128265000D02*
X135719100Y-129415900D01*
X135719100Y-129415900D02*
X110590100Y-129415900D01*
X110590100Y-129415900D02*
X107865900Y-126691700D01*
X107865900Y-126691700D02*
X99311100Y-126691700D01*
X99311100Y-126691700D02*
X97631200Y-128371600D01*
X217833000Y-147315000D02*
X218983900Y-148465900D01*
X218983900Y-148465900D02*
X254782100Y-148465900D01*
X254782100Y-148465900D02*
X255933000Y-147315000D01*
X174970000Y-128265000D02*
X178678200Y-131973200D01*
X178678200Y-131973200D02*
X185494100Y-131973200D01*
X185494100Y-131973200D02*
X198135700Y-144614800D01*
X198135700Y-144614800D02*
X215132800Y-144614800D01*
X215132800Y-144614800D02*
X217833000Y-147315000D01*
X136870000Y-128265000D02*
X138041800Y-129436800D01*
X138041800Y-129436800D02*
X173798200Y-129436800D01*
X173798200Y-129436800D02*
X174970000Y-128265000D01*
X67020400Y-115565000D02*
X68290400Y-116835000D01*
X68290400Y-116835000D02*
X68290400Y-128265000D01*
X98770000Y-130969000D02*
X97168700Y-132570300D01*
X97168700Y-132570300D02*
X86189100Y-132570300D01*
X86189100Y-132570300D02*
X74228300Y-144531100D01*
X74228300Y-144531100D02*
X74228300Y-148275100D01*
X74228300Y-148275100D02*
X74037500Y-148465900D01*
X74037500Y-148465900D02*
X66583800Y-148465900D01*
X66583800Y-148465900D02*
X65432900Y-147315000D01*
X141633000Y-147315000D02*
X142783900Y-148465900D01*
X142783900Y-148465900D02*
X178582100Y-148465900D01*
X178582100Y-148465900D02*
X179733000Y-147315000D01*
X208308000Y-166365000D02*
X209482800Y-167539800D01*
X209482800Y-167539800D02*
X245233200Y-167539800D01*
X245233200Y-167539800D02*
X246408000Y-166365000D01*
X71782900Y-134615000D02*
X73052900Y-135885000D01*
X73052900Y-135885000D02*
X73052900Y-147315000D01*
X55907900Y-166365000D02*
X55907900Y-159172700D01*
X55907900Y-159172700D02*
X57797200Y-157283400D01*
X57797200Y-157283400D02*
X57797200Y-156057000D01*
X57797200Y-156057000D02*
X64629300Y-149224900D01*
X64629300Y-149224900D02*
X73915400Y-149224900D01*
X73915400Y-149224900D02*
X75129000Y-148011300D01*
X75129000Y-148011300D02*
X75129000Y-144274600D01*
X75129000Y-144274600D02*
X86291900Y-133111700D01*
X86291900Y-133111700D02*
X94463800Y-133111700D01*
X94463800Y-133111700D02*
X96392400Y-135040300D01*
X96392400Y-135040300D02*
X102711200Y-128721500D01*
X102711200Y-128721500D02*
X102711200Y-128371600D01*
X96392400Y-135040300D02*
X96392400Y-140174400D01*
X96392400Y-140174400D02*
X103533000Y-147315000D01*
X255933000Y-185415000D02*
X262315100Y-191797100D01*
X262315100Y-191797100D02*
X301937900Y-191797100D01*
X301937900Y-191797100D02*
X303558000Y-190177000D01*
X132108000Y-166365000D02*
X128300900Y-162557900D01*
X128300900Y-162557900D02*
X128300900Y-151346900D01*
X128300900Y-151346900D02*
X123115000Y-146161000D01*
X123115000Y-146161000D02*
X119051000Y-146161000D01*
X119051000Y-146161000D02*
X116746200Y-148465800D01*
X116746200Y-148465800D02*
X104683800Y-148465800D01*
X104683800Y-148465800D02*
X103533000Y-147315000D01*
X132108000Y-166365000D02*
X133258900Y-167515900D01*
X133258900Y-167515900D02*
X148273200Y-167515900D01*
X148273200Y-167515900D02*
X150632900Y-165156200D01*
X150632900Y-165156200D02*
X153587600Y-165156200D01*
X153587600Y-165156200D02*
X155947300Y-167515900D01*
X155947300Y-167515900D02*
X169057100Y-167515900D01*
X169057100Y-167515900D02*
X170208000Y-166365000D01*
X62257900Y-153665000D02*
X63597900Y-155005000D01*
X63597900Y-155005000D02*
X63597900Y-164055000D01*
X63597900Y-164055000D02*
X63527900Y-164125000D01*
X63527900Y-164125000D02*
X63527900Y-166365000D01*
X64639200Y-172715000D02*
X65764200Y-173840000D01*
X65764200Y-173840000D02*
X65764200Y-174857000D01*
X65764200Y-174857000D02*
X65909200Y-175002000D01*
X65909200Y-175002000D02*
X65909200Y-185415000D01*
X77215400Y-97184900D02*
X77215300Y-97184900D01*
X77215300Y-97184900D02*
X76545400Y-96515000D01*
X77215400Y-97184900D02*
X77885400Y-97854900D01*
X77885400Y-97854900D02*
X77885400Y-104106000D01*
X77885400Y-104106000D02*
X77815400Y-104176000D01*
X77815400Y-104176000D02*
X77815400Y-107156000D01*
X76545400Y-96514900D02*
X77215400Y-97184900D01*
X90832900Y-134615000D02*
X90832900Y-147120000D01*
X90832900Y-147120000D02*
X91027400Y-147315000D01*
X91027400Y-147315000D02*
X92102900Y-147315000D01*
X81307900Y-153665000D02*
X82647900Y-155005000D01*
X82647900Y-155005000D02*
X82647900Y-162531000D01*
X82647900Y-162531000D02*
X82577900Y-162601000D01*
X82577900Y-162601000D02*
X82577900Y-166365000D01*
X88451700Y-172715000D02*
X88451700Y-174812000D01*
X88451700Y-174812000D02*
X89721700Y-176082000D01*
X89721700Y-176082000D02*
X89721700Y-185415000D01*
X95595400Y-96514900D02*
X95595400Y-96515000D01*
X95595400Y-96515000D02*
X95595400Y-98105900D01*
X95595400Y-98105900D02*
X96865400Y-99375900D01*
X96865400Y-99375900D02*
X96865400Y-107156000D01*
X109883000Y-134615000D02*
X109883000Y-147120000D01*
X109883000Y-147120000D02*
X110077000Y-147315000D01*
X110077000Y-147315000D02*
X111153000Y-147315000D01*
X100358000Y-155158000D02*
X100357900Y-155157900D01*
X100357900Y-155157900D02*
X100357900Y-153665000D01*
X100358000Y-155158000D02*
X100358000Y-166170000D01*
X100358000Y-166170000D02*
X100552000Y-166365000D01*
X100552000Y-166365000D02*
X101627900Y-166365000D01*
X100358000Y-153665000D02*
X100358000Y-155158000D01*
X101627900Y-166365000D02*
X101628000Y-166365000D01*
X119408000Y-153665000D02*
X119408000Y-166170000D01*
X119408000Y-166170000D02*
X119602000Y-166365000D01*
X119602000Y-166365000D02*
X120678000Y-166365000D01*
X133695000Y-96514900D02*
X133695000Y-96515000D01*
X133695000Y-96515000D02*
X133695000Y-109020000D01*
X133695000Y-109020000D02*
X133890000Y-109215000D01*
X133890000Y-109215000D02*
X134965000Y-109215000D01*
X138458000Y-153665000D02*
X138458000Y-166170000D01*
X138458000Y-166170000D02*
X138652000Y-166365000D01*
X138652000Y-166365000D02*
X139728000Y-166365000D01*
X152745000Y-96514900D02*
X152745000Y-96515000D01*
X152745000Y-96515000D02*
X152745000Y-109020000D01*
X152745000Y-109020000D02*
X152940000Y-109215000D01*
X152940000Y-109215000D02*
X154015000Y-109215000D01*
X157508000Y-153665000D02*
X158778000Y-154935000D01*
X158778000Y-154935000D02*
X158778000Y-166365000D01*
X159889000Y-172715000D02*
X159889000Y-185220000D01*
X159889000Y-185220000D02*
X160084000Y-185415000D01*
X160084000Y-185415000D02*
X161159000Y-185415000D01*
X171795000Y-96514900D02*
X171795000Y-96515000D01*
X171795000Y-96515000D02*
X171795000Y-109020000D01*
X171795000Y-109020000D02*
X171990000Y-109215000D01*
X171990000Y-109215000D02*
X173065000Y-109215000D01*
X176558000Y-153665000D02*
X176558000Y-166170000D01*
X176558000Y-166170000D02*
X176752000Y-166365000D01*
X176752000Y-166365000D02*
X177828000Y-166365000D01*
X190845000Y-96514900D02*
X190845000Y-96515000D01*
X190845000Y-96515000D02*
X190845000Y-109020000D01*
X190845000Y-109020000D02*
X191040000Y-109215000D01*
X191040000Y-109215000D02*
X192115000Y-109215000D01*
X195608000Y-153665000D02*
X195608000Y-166170000D01*
X195608000Y-166170000D02*
X195802000Y-166365000D01*
X195802000Y-166365000D02*
X196878000Y-166365000D01*
X209895000Y-96514900D02*
X209895000Y-96515000D01*
X209895000Y-96515000D02*
X209895000Y-109020000D01*
X209895000Y-109020000D02*
X210090000Y-109215000D01*
X210090000Y-109215000D02*
X211165000Y-109215000D01*
X214658000Y-153665000D02*
X214658000Y-166170000D01*
X214658000Y-166170000D02*
X214852000Y-166365000D01*
X214852000Y-166365000D02*
X215928000Y-166365000D01*
X228945000Y-96514900D02*
X228945000Y-96515000D01*
X228945000Y-96515000D02*
X228945000Y-109020000D01*
X228945000Y-109020000D02*
X229140000Y-109215000D01*
X229140000Y-109215000D02*
X230215000Y-109215000D01*
X233708000Y-172715000D02*
X233708000Y-185220000D01*
X233708000Y-185220000D02*
X233902000Y-185415000D01*
X233902000Y-185415000D02*
X234978000Y-185415000D01*
X247995000Y-96514900D02*
X247995000Y-96515000D01*
X247995000Y-96515000D02*
X247995000Y-109020000D01*
X247995000Y-109020000D02*
X248190000Y-109215000D01*
X248190000Y-109215000D02*
X249265000Y-109215000D01*
X262283000Y-172715000D02*
X262283000Y-185220000D01*
X262283000Y-185220000D02*
X262477000Y-185415000D01*
X262477000Y-185415000D02*
X263553000Y-185415000D01*
X267045000Y-96514900D02*
X267045000Y-96515000D01*
X267045000Y-96515000D02*
X267045000Y-109020000D01*
X267045000Y-109020000D02*
X267240000Y-109215000D01*
X267240000Y-109215000D02*
X268315000Y-109215000D01*
X277840000Y-128265000D02*
X277840000Y-127114200D01*
X277840000Y-127114200D02*
X276570000Y-125844200D01*
X276570000Y-125844200D02*
X276570000Y-115565000D01*
X290858000Y-177477000D02*
X290858000Y-189983000D01*
X290858000Y-189983000D02*
X291052000Y-190177000D01*
X291052000Y-190177000D02*
X292128000Y-190177000D01*
X295620000Y-96514900D02*
X295620000Y-96515000D01*
X295620000Y-96515000D02*
X295620000Y-109020000D01*
X295620000Y-109020000D02*
X295815000Y-109215000D01*
X295815000Y-109215000D02*
X296890000Y-109215000D01*
X304034000Y-137790000D02*
X304034000Y-126360000D01*
X304034000Y-126360000D02*
X302764000Y-125090000D01*
X309908000Y-158427000D02*
X309908000Y-170933000D01*
X309908000Y-170933000D02*
X310102000Y-171127000D01*
X310102000Y-171127000D02*
X311178000Y-171127000D01*
X309908000Y-177477000D02*
X309908000Y-189983000D01*
X309908000Y-189983000D02*
X310102000Y-190177000D01*
X310102000Y-190177000D02*
X311178000Y-190177000D01*
X333720000Y-96514900D02*
X333720000Y-96515000D01*
X333720000Y-96515000D02*
X333720000Y-109020000D01*
X333720000Y-109020000D02*
X333915000Y-109215000D01*
X333915000Y-109215000D02*
X334990000Y-109215000D01*
X333720000Y-115565000D02*
X333720000Y-128070000D01*
X333720000Y-128070000D02*
X333915000Y-128265000D01*
X333915000Y-128265000D02*
X334990000Y-128265000D01*
X333720000Y-134615000D02*
X333720000Y-147120000D01*
X333720000Y-147120000D02*
X333915000Y-147315000D01*
X333915000Y-147315000D02*
X334990000Y-147315000D01*
X333720000Y-153665000D02*
X333720000Y-166170000D01*
X333720000Y-166170000D02*
X333915000Y-166365000D01*
X333915000Y-166365000D02*
X334990000Y-166365000D01*
X328958000Y-177477000D02*
X328958000Y-189983000D01*
X328958000Y-189983000D02*
X329152000Y-190177000D01*
X329152000Y-190177000D02*
X330228000Y-190177000D01*
X352770000Y-96514900D02*
X352770000Y-96515000D01*
X352770000Y-96515000D02*
X352770000Y-109020000D01*
X352770000Y-109020000D02*
X352965000Y-109215000D01*
X352965000Y-109215000D02*
X354040000Y-109215000D01*
X352770000Y-115565000D02*
X352770000Y-128070000D01*
X352770000Y-128070000D02*
X352965000Y-128265000D01*
X352965000Y-128265000D02*
X354040000Y-128265000D01*
X352770000Y-134615000D02*
X352770000Y-147120000D01*
X352770000Y-147120000D02*
X352965000Y-147315000D01*
X352965000Y-147315000D02*
X354040000Y-147315000D01*
X352770000Y-153665000D02*
X352770000Y-166170000D01*
X352770000Y-166170000D02*
X352965000Y-166365000D01*
X352965000Y-166365000D02*
X354040000Y-166365000D01*
X352770000Y-172715000D02*
X352770000Y-185220000D01*
X352770000Y-185220000D02*
X352965000Y-185415000D01*
X352965000Y-185415000D02*
X354040000Y-185415000D01*
X371820000Y-96514900D02*
X371820000Y-96515000D01*
X371820000Y-96515000D02*
X371820000Y-109020000D01*
X371820000Y-109020000D02*
X372015000Y-109215000D01*
X372015000Y-109215000D02*
X373090000Y-109215000D01*
X371820000Y-115565000D02*
X371820000Y-128070000D01*
X371820000Y-128070000D02*
X372015000Y-128265000D01*
X372015000Y-128265000D02*
X373090000Y-128265000D01*
X371820000Y-134615000D02*
X371820000Y-147120000D01*
X371820000Y-147120000D02*
X372015000Y-147315000D01*
X372015000Y-147315000D02*
X373090000Y-147315000D01*
X371820000Y-153665000D02*
X371820000Y-166170000D01*
X371820000Y-166170000D02*
X372015000Y-166365000D01*
X372015000Y-166365000D02*
X373090000Y-166365000D01*
X371820000Y-172715000D02*
X371820000Y-185220000D01*
X371820000Y-185220000D02*
X372015000Y-185415000D01*
X372015000Y-185415000D02*
X373090000Y-185415000D01*
X390870000Y-96514900D02*
X390870000Y-96515000D01*
X390870000Y-96515000D02*
X390870000Y-109020000D01*
X390870000Y-109020000D02*
X391065000Y-109215000D01*
X391065000Y-109215000D02*
X392140000Y-109215000D01*
X390870000Y-125090000D02*
X390870000Y-137595000D01*
X390870000Y-137595000D02*
X391065000Y-137790000D01*
X391065000Y-137790000D02*
X392140000Y-137790000D01*
X390870000Y-163190000D02*
X390870000Y-175695000D01*
X390870000Y-175695000D02*
X391065000Y-175890000D01*
X391065000Y-175890000D02*
X392140000Y-175890000D01*
X59062700Y-111748300D02*
X59379300Y-111431700D01*
X59379300Y-111431700D02*
X86228500Y-111431700D01*
X86228500Y-111431700D02*
X87471200Y-112674400D01*
X59062700Y-111748300D02*
X60670400Y-113356000D01*
X60670400Y-113356000D02*
X60670400Y-118105000D01*
X51145400Y-99055000D02*
X51145400Y-103831000D01*
X51145400Y-103831000D02*
X59062700Y-111748300D01*
X32095400Y-99055000D02*
X32095400Y-99054900D01*
X32095400Y-99054900D02*
X30504500Y-99054900D01*
X30504500Y-99054900D02*
X29625400Y-99933900D01*
X29625400Y-99933900D02*
X29625400Y-110872000D01*
X29625400Y-110872000D02*
X35732900Y-116980000D01*
X35732900Y-116980000D02*
X36857900Y-118105000D01*
X51145400Y-99054900D02*
X51145400Y-99055000D01*
X65432900Y-137155000D02*
X63841900Y-137155000D01*
X63841900Y-137155000D02*
X55907900Y-145089000D01*
X55907900Y-145089000D02*
X55907900Y-156205000D01*
X60670400Y-118105000D02*
X60670400Y-121151000D01*
X60670400Y-121151000D02*
X59519900Y-122301000D01*
X59519900Y-122301000D02*
X59519900Y-131242000D01*
X59519900Y-131242000D02*
X65432900Y-137155000D01*
X34476700Y-156205000D02*
X33351700Y-157330000D01*
X33351700Y-157330000D02*
X32845700Y-157330000D01*
X32845700Y-157330000D02*
X32006700Y-158169000D01*
X32006700Y-158169000D02*
X32006700Y-172785000D01*
X32006700Y-172785000D02*
X34476700Y-175255000D01*
X39239200Y-137155000D02*
X37648200Y-137155000D01*
X37648200Y-137155000D02*
X34476700Y-140326000D01*
X34476700Y-140326000D02*
X34476700Y-156205000D01*
X36857900Y-118105000D02*
X35266900Y-118105000D01*
X35266900Y-118105000D02*
X34387900Y-118984000D01*
X34387900Y-118984000D02*
X34387900Y-132304000D01*
X34387900Y-132304000D02*
X38114200Y-136030000D01*
X38114200Y-136030000D02*
X39239200Y-137155000D01*
X79720400Y-118105000D02*
X85586800Y-118105000D01*
X85586800Y-118105000D02*
X90011200Y-113680600D01*
X90011200Y-113680600D02*
X90011200Y-113131600D01*
X74957900Y-156205000D02*
X80518000Y-150645000D01*
X80518000Y-150645000D02*
X80518000Y-139529000D01*
X80518000Y-139529000D02*
X82891900Y-137155000D01*
X82891900Y-137155000D02*
X84482900Y-137155000D01*
X82101700Y-175255000D02*
X78099900Y-175255000D01*
X78099900Y-175255000D02*
X72487900Y-169643000D01*
X72487900Y-169643000D02*
X72487900Y-157070000D01*
X72487900Y-157070000D02*
X73353000Y-156205000D01*
X73353000Y-156205000D02*
X74957900Y-156205000D01*
X108295000Y-99055000D02*
X127345000Y-99055000D01*
X122583000Y-137155000D02*
X141633000Y-137155000D01*
X117820000Y-118105000D02*
X136870000Y-118105000D01*
X179733000Y-137155000D02*
X160683000Y-137155000D01*
X174970000Y-118105000D02*
X155920000Y-118105000D01*
X97631200Y-112674400D02*
X99039200Y-111266400D01*
X99039200Y-111266400D02*
X173131400Y-111266400D01*
X173131400Y-111266400D02*
X180687900Y-103709900D01*
X180687900Y-103709900D02*
X180687900Y-102399300D01*
X180687900Y-102399300D02*
X184032200Y-99055000D01*
X184032200Y-99055000D02*
X184495000Y-99055000D01*
X217833000Y-137155000D02*
X198783000Y-137155000D01*
X194020000Y-118105000D02*
X213070000Y-118105000D01*
X251170000Y-118105000D02*
X251170000Y-126628400D01*
X251170000Y-126628400D02*
X255933000Y-131391400D01*
X255933000Y-131391400D02*
X255933000Y-137155000D01*
X232120000Y-118105000D02*
X251170000Y-118105000D01*
X100171200Y-113131600D02*
X100171200Y-113370400D01*
X100171200Y-113370400D02*
X104298600Y-117497800D01*
X104298600Y-117497800D02*
X107204000Y-117497800D01*
X107204000Y-117497800D02*
X110611500Y-114090300D01*
X110611500Y-114090300D02*
X228105300Y-114090300D01*
X228105300Y-114090300D02*
X232120000Y-118105000D01*
X236883000Y-137155000D02*
X255933000Y-137155000D01*
X259545000Y-109767000D02*
X259545000Y-103251000D01*
X259545000Y-103251000D02*
X260695000Y-102101000D01*
X260695000Y-102101000D02*
X260695000Y-99055000D01*
X268629000Y-118105000D02*
X267883000Y-118105000D01*
X267883000Y-118105000D02*
X259545000Y-109767000D01*
X102711200Y-112674400D02*
X102711200Y-115207400D01*
X102711200Y-115207400D02*
X104551200Y-117047400D01*
X104551200Y-117047400D02*
X105809500Y-117047400D01*
X105809500Y-117047400D02*
X109217000Y-113639900D01*
X109217000Y-113639900D02*
X255672100Y-113639900D01*
X255672100Y-113639900D02*
X259545000Y-109767000D01*
X289270000Y-99055000D02*
X289270000Y-99054900D01*
X289270000Y-99054900D02*
X287679000Y-99054900D01*
X287679000Y-99054900D02*
X286800000Y-99933900D01*
X286800000Y-99933900D02*
X286800000Y-118016000D01*
X286800000Y-118016000D02*
X296414000Y-127630000D01*
X260695000Y-99055000D02*
X260695000Y-99054900D01*
X270220000Y-118105000D02*
X268629000Y-118105000D01*
X268629000Y-118105000D02*
X270220000Y-118105000D01*
X274983000Y-137155000D02*
X267750000Y-129922000D01*
X267750000Y-129922000D02*
X267750000Y-118984000D01*
X267750000Y-118984000D02*
X268629000Y-118105000D01*
X272602000Y-156205000D02*
X272602000Y-140360000D01*
X272602000Y-140360000D02*
X272513000Y-140271000D01*
X272513000Y-140271000D02*
X272513000Y-138034000D01*
X272513000Y-138034000D02*
X273392000Y-137155000D01*
X273392000Y-137155000D02*
X274983000Y-137155000D01*
X284508000Y-180017000D02*
X280474000Y-180017000D01*
X280474000Y-180017000D02*
X270132000Y-169675000D01*
X270132000Y-169675000D02*
X270132000Y-157084000D01*
X270132000Y-157084000D02*
X271011000Y-156205000D01*
X271011000Y-156205000D02*
X272602000Y-156205000D01*
X303558000Y-160967000D02*
X301967000Y-160967000D01*
X301967000Y-160967000D02*
X301088000Y-161846000D01*
X301088000Y-161846000D02*
X301088000Y-177547000D01*
X301088000Y-177547000D02*
X303558000Y-180017000D01*
X324928200Y-100990800D02*
X302361500Y-100990800D01*
X302361500Y-100990800D02*
X296434400Y-95063700D01*
X296434400Y-95063700D02*
X284960500Y-95063700D01*
X284960500Y-95063700D02*
X283533600Y-96490600D01*
X283533600Y-96490600D02*
X270752500Y-96490600D01*
X270752500Y-96490600D02*
X269321200Y-95059300D01*
X269321200Y-95059300D02*
X262599100Y-95059300D01*
X262599100Y-95059300D02*
X255576700Y-102081700D01*
X255576700Y-102081700D02*
X255576700Y-105030500D01*
X255576700Y-105030500D02*
X247475600Y-113131600D01*
X247475600Y-113131600D02*
X105251200Y-113131600D01*
X324928200Y-100990800D02*
X324900000Y-101019000D01*
X324900000Y-101019000D02*
X324900000Y-115635000D01*
X324900000Y-115635000D02*
X327370000Y-118105000D01*
X327370000Y-99055000D02*
X326245000Y-100180000D01*
X326245000Y-100180000D02*
X325739000Y-100180000D01*
X325739000Y-100180000D02*
X324928200Y-100990800D01*
X346420000Y-99055000D02*
X346420000Y-99054900D01*
X327370000Y-99054900D02*
X327370000Y-99055000D01*
X346420000Y-99054900D02*
X344829000Y-99054900D01*
X344829000Y-99054900D02*
X343950000Y-99933900D01*
X343950000Y-99933900D02*
X343950000Y-115635000D01*
X343950000Y-115635000D02*
X346420000Y-118105000D01*
X346420000Y-156205000D02*
X346420000Y-154614000D01*
X346420000Y-154614000D02*
X343950000Y-152144000D01*
X343950000Y-152144000D02*
X343950000Y-138034000D01*
X343950000Y-138034000D02*
X344829000Y-137155000D01*
X344829000Y-137155000D02*
X346420000Y-137155000D01*
X346420000Y-118105000D02*
X344829000Y-118105000D01*
X344829000Y-118105000D02*
X343950000Y-118984000D01*
X343950000Y-118984000D02*
X343950000Y-134685000D01*
X343950000Y-134685000D02*
X346420000Y-137155000D01*
X327370000Y-156205000D02*
X326864000Y-156205000D01*
X326864000Y-156205000D02*
X322608000Y-160461000D01*
X322608000Y-160461000D02*
X322608000Y-180017000D01*
X327370000Y-137155000D02*
X325779000Y-137155000D01*
X325779000Y-137155000D02*
X324900000Y-138034000D01*
X324900000Y-138034000D02*
X324900000Y-153735000D01*
X324900000Y-153735000D02*
X327370000Y-156205000D01*
X327370000Y-118105000D02*
X325779000Y-118105000D01*
X325779000Y-118105000D02*
X324900000Y-118984000D01*
X324900000Y-118984000D02*
X324900000Y-134685000D01*
X324900000Y-134685000D02*
X327370000Y-137155000D01*
X346420000Y-175255000D02*
X347621000Y-176456000D01*
X347621000Y-176456000D02*
X347621000Y-185856900D01*
X347621000Y-185856900D02*
X342150000Y-191327900D01*
X342150000Y-191327900D02*
X308232200Y-191327900D01*
X308232200Y-191327900D02*
X305930400Y-189026100D01*
X305930400Y-189026100D02*
X298885500Y-189026100D01*
X298885500Y-189026100D02*
X296583800Y-191327800D01*
X296583800Y-191327800D02*
X287389100Y-191327800D01*
X287389100Y-191327800D02*
X257447000Y-161385700D01*
X257447000Y-161385700D02*
X224537500Y-161385700D01*
X224537500Y-161385700D02*
X209316000Y-146164200D01*
X209316000Y-146164200D02*
X199046200Y-146164200D01*
X199046200Y-146164200D02*
X196257600Y-143375600D01*
X196257600Y-143375600D02*
X161314500Y-143375600D01*
X161314500Y-143375600D02*
X148537400Y-130598500D01*
X148537400Y-130598500D02*
X111135800Y-130598500D01*
X111135800Y-130598500D02*
X108451700Y-127914400D01*
X108451700Y-127914400D02*
X105251200Y-127914400D01*
X384520000Y-99055000D02*
X384520000Y-99054900D01*
X365470000Y-137155000D02*
X363000000Y-134685000D01*
X363000000Y-134685000D02*
X363000000Y-118984000D01*
X363000000Y-118984000D02*
X363879000Y-118105000D01*
X363879000Y-118105000D02*
X365470000Y-118105000D01*
X365469900Y-99054900D02*
X365470000Y-99055000D01*
X365469900Y-99054900D02*
X365470000Y-99054900D01*
X365470000Y-118105000D02*
X363000000Y-115635000D01*
X363000000Y-115635000D02*
X363000000Y-99933900D01*
X363000000Y-99933900D02*
X363879000Y-99054900D01*
X363879000Y-99054900D02*
X365469900Y-99054900D01*
X384520000Y-99054900D02*
X382929000Y-99054900D01*
X382929000Y-99054900D02*
X382050000Y-99933900D01*
X382050000Y-99933900D02*
X382050000Y-116807000D01*
X382050000Y-116807000D02*
X384520000Y-119277000D01*
X384520000Y-119277000D02*
X384520000Y-127630000D01*
X384520000Y-165730000D02*
X382394000Y-163604000D01*
X382394000Y-163604000D02*
X382394000Y-131090000D01*
X382394000Y-131090000D02*
X382050000Y-130746000D01*
X382050000Y-130746000D02*
X382050000Y-128509000D01*
X382050000Y-128509000D02*
X382929000Y-127630000D01*
X382929000Y-127630000D02*
X384520000Y-127630000D01*
X365470000Y-156205000D02*
X362966000Y-153700000D01*
X362966000Y-153700000D02*
X362966000Y-138068000D01*
X362966000Y-138068000D02*
X363879000Y-137155000D01*
X363879000Y-137155000D02*
X365470000Y-137155000D01*
X365470000Y-175255000D02*
X365470000Y-173664000D01*
X365470000Y-173664000D02*
X363000000Y-171194000D01*
X363000000Y-171194000D02*
X363000000Y-157084000D01*
X363000000Y-157084000D02*
X363879000Y-156205000D01*
X363879000Y-156205000D02*
X365470000Y-156205000D01*
X53086000Y-123825000D02*
X53086000Y-122649700D01*
X53086000Y-122649700D02*
X52718700Y-122649700D01*
X52718700Y-122649700D02*
X48622100Y-118553100D01*
X48622100Y-118553100D02*
X48622100Y-96208900D01*
X48622100Y-96208900D02*
X49786000Y-95045000D01*
X41146000Y-90865000D02*
X49786000Y-90865000D01*
X57150000Y-131445000D02*
X47216100Y-121511100D01*
X47216100Y-121511100D02*
X47216100Y-94361300D01*
X47216100Y-94361300D02*
X47216000Y-94361300D01*
M02*
