M48
; DRILL file {KiCad 5.1.2-f72e74a~84~ubuntu18.04.1} date lun 27 may 2019 19:37:14 -05
; FORMAT={-:-/ absolute / inch / decimal}
; #@! TF.CreationDate,2019-05-27T19:37:14-05:00
; #@! TF.GenerationSoftware,Kicad,Pcbnew,5.1.2-f72e74a~84~ubuntu18.04.1
; #@! TF.FileFunction,Plated,1,2,PTH
FMAT,2
INCH
T1C0.0157
T2C0.0236
T3C0.0390
T4C0.0394
T5C0.0409
T6C0.0430
T7C0.0579
%
G90
G05
T1
X1.8589Y-3.715
X9.1957Y-4.4077
X10.0832Y-6.4324
T3
X10.0761Y-7.2998
X10.3761Y-7.2998
X3.2324Y-7.2998
X3.5324Y-7.2998
X2.5761Y-5.7998
X2.8761Y-5.7998
X1.2636Y-4.2998
X1.5636Y-4.2998
X14.3886Y-5.7998
X14.6886Y-5.7998
X2.3886Y-5.0498
X2.6886Y-5.0498
X12.8886Y-5.0498
X13.1886Y-5.0498
X14.3886Y-4.2998
X14.6886Y-4.2998
X6.5136Y-4.2998
X6.8136Y-4.2998
X6.0448Y-7.2998
X6.3448Y-7.2998
X11.6698Y-5.4248
X11.9698Y-5.4248
X8.2011Y-6.5498
X8.5011Y-6.5498
X8.5761Y-5.7998
X8.8761Y-5.7998
X2.135Y-5.175
X2.135Y-5.575
X1.3574Y-7.2998
X1.6574Y-7.2998
X8.7636Y-4.2998
X9.0636Y-4.2998
X14.3886Y-5.0498
X14.6886Y-5.0498
X6.8886Y-5.0498
X7.1886Y-5.0498
X12.8886Y-5.7998
X13.1886Y-5.7998
X15.1386Y-4.2998
X15.4386Y-4.2998
X3.7011Y-6.5498
X4.0011Y-6.5498
X7.4511Y-6.5498
X7.7511Y-6.5498
X3.1386Y-5.1563
X3.4386Y-5.1563
X5.0136Y-4.2998
X5.3136Y-4.2998
X15.1386Y-6.9248
X15.4386Y-6.9248
X5.7636Y-4.2998
X6.0636Y-4.2998
X12.7011Y-7.4873
X13.0011Y-7.4873
X14.3886Y-6.5498
X14.6886Y-6.5498
X11.2011Y-7.4873
X11.5011Y-7.4873
X9.5136Y-4.2998
X9.8136Y-4.2998
X11.9511Y-6.7373
X12.2511Y-6.7373
X13.6386Y-5.7998
X13.9386Y-5.7998
X14.3886Y-7.2998
X14.6886Y-7.2998
X10.8261Y-5.7998
X11.1261Y-5.7998
X8.0136Y-4.2998
X8.3136Y-4.2998
X2.2949Y-7.2998
X2.5949Y-7.2998
X6.7011Y-6.5498
X7.0011Y-6.5498
X12.8886Y-4.2998
X13.1886Y-4.2998
X1.3574Y-6.5498
X1.6574Y-6.5498
X15.1386Y-5.4248
X15.4386Y-5.4248
X10.2636Y-4.2998
X10.5636Y-4.2998
X9.1386Y-5.0498
X9.4386Y-5.0498
X5.2011Y-6.5498
X5.5011Y-6.5498
X8.9511Y-7.2998
X9.2511Y-7.2998
X10.7324Y-6.5498
X11.0324Y-6.5498
X2.25Y-5.175
X2.25Y-5.575
X11.9511Y-7.4873
X12.2511Y-7.4873
X9.3261Y-5.7998
X9.6261Y-5.7998
X13.6386Y-5.0498
X13.9386Y-5.0498
X2.0136Y-4.2998
X2.3136Y-4.2998
X5.3886Y-5.0498
X5.6886Y-5.0498
X11.3886Y-4.2998
X11.6886Y-4.2998
X10.0761Y-5.7998
X10.3761Y-5.7998
X6.1386Y-5.0498
X6.4386Y-5.0498
X8.3886Y-5.0498
X8.6886Y-5.0498
X9.8886Y-5.0498
X10.1886Y-5.0498
X2.9511Y-6.5498
X3.2511Y-6.5498
X13.6386Y-4.2998
X13.9386Y-4.2998
X2.7636Y-4.2187
X3.0636Y-4.2187
X7.6386Y-5.0498
X7.9386Y-5.0498
X1.5449Y-5.7998
X1.8449Y-5.7998
X12.8886Y-6.5498
X13.1886Y-6.5498
X7.2636Y-4.2998
X7.5636Y-4.2998
X4.8261Y-5.7998
X5.1261Y-5.7998
X3.8886Y-5.1563
X4.1886Y-5.1563
X4.4511Y-6.5498
X4.7511Y-6.5498
X2.2011Y-6.5498
X2.5011Y-6.5498
X5.9511Y-6.5498
X6.2511Y-6.5498
X7.0761Y-5.7998
X7.3761Y-5.7998
X13.6386Y-6.5498
X13.9386Y-6.5498
X3.3261Y-5.7998
X3.6261Y-5.7998
X7.8261Y-5.7998
X8.1261Y-5.7998
X13.6386Y-7.2998
X13.9386Y-7.2998
X8.9511Y-6.5498
X9.2511Y-6.5498
X9.7011Y-6.5498
X10.0011Y-6.5498
X4.6386Y-5.0498
X4.9386Y-5.0498
X1.4511Y-5.0498
X1.7511Y-5.0498
X4.2636Y-4.2187
X4.5636Y-4.2187
X5.5761Y-5.7998
X5.8761Y-5.7998
X10.6386Y-5.0498
X10.9386Y-5.0498
X6.3261Y-5.7998
X6.6261Y-5.7998
X3.5136Y-4.2187
X3.8136Y-4.2187
X4.0761Y-5.7998
X4.3761Y-5.7998
T4
X2.09Y-4.575
X2.09Y-4.675
X2.09Y-4.775
X2.09Y-4.875
T5
X11.7698Y-5.3248
X11.8698Y-5.3248
T6
X3.0437Y-4.436
X3.0437Y-5.054
X3.1437Y-4.454
X3.1437Y-5.036
X3.2437Y-4.436
X3.2437Y-5.054
X3.3437Y-4.454
X3.3437Y-5.036
X3.4437Y-4.436
X3.4437Y-5.054
X3.5437Y-4.454
X3.5437Y-5.036
X3.6437Y-4.436
X3.6437Y-5.054
X3.7437Y-4.454
X3.7437Y-5.036
X3.8437Y-4.436
X3.8437Y-5.054
X3.9437Y-4.454
X3.9437Y-5.036
X4.0437Y-4.436
X4.0437Y-5.054
X4.1437Y-4.454
X4.1437Y-5.036
T7
X8.3886Y-4.6498
X8.6386Y-4.5498
X5.2011Y-6.1498
X5.4511Y-6.0498
X12.8886Y-6.1498
X13.1386Y-6.0498
X14.3886Y-6.8998
X14.6386Y-6.7998
X8.7636Y-3.8998
X9.0136Y-3.7998
X7.0761Y-5.3998
X7.3261Y-5.2998
X2.5761Y-5.3998
X2.8261Y-5.2998
X2.2011Y-6.1498
X2.4511Y-6.0498
X7.4511Y-6.1498
X7.7011Y-6.0498
X10.0761Y-6.8998
X10.3261Y-6.7998
X15.1386Y-3.8998
X15.3886Y-3.7998
X15.1386Y-5.0248
X15.3886Y-4.9248
X8.9511Y-6.8998
X9.2011Y-6.7998
X4.0761Y-5.3998
X4.3261Y-5.2998
X3.2324Y-6.8998
X3.4824Y-6.7998
X4.4511Y-6.1498
X4.7011Y-6.0498
X13.6386Y-4.6498
X13.8886Y-4.5498
X14.3886Y-4.6498
X14.6386Y-4.5498
X14.3886Y-5.3998
X14.6386Y-5.2998
X3.1386Y-4.6498
X3.3886Y-4.5498
X14.3886Y-3.8998
X14.6386Y-3.7998
X11.3886Y-3.8998
X11.6386Y-3.7998
X2.9511Y-6.1498
X3.2011Y-6.0498
X3.5136Y-3.8998
X3.7636Y-3.7998
X8.9511Y-6.1498
X9.2011Y-6.0498
X13.6386Y-6.1498
X13.8886Y-6.0498
X14.3886Y-6.1498
X14.6386Y-6.0498
X9.1386Y-4.6498
X9.3886Y-4.5498
X6.1386Y-4.6498
X6.3886Y-4.5498
X2.7636Y-3.8998
X3.0136Y-3.7998
X11.9511Y-7.0873
X12.2011Y-6.9873
X6.8886Y-4.6498
X7.1386Y-4.5498
X6.0448Y-6.8998
X6.2948Y-6.7998
X6.3261Y-5.3998
X6.5761Y-5.2998
X12.7011Y-7.0873
X12.9511Y-6.9873
X4.2636Y-3.8998
X4.5136Y-3.7998
X10.0761Y-5.3998
X10.3261Y-5.2998
X5.9511Y-6.1498
X6.2011Y-6.0498
X11.2011Y-7.0873
X11.4511Y-6.9873
X1.2636Y-3.8998
X1.5136Y-3.7998
X3.3261Y-5.3998
X3.5761Y-5.2998
X4.8261Y-5.3998
X5.0761Y-5.2998
X10.7324Y-6.1498
X10.9824Y-6.0498
X12.8886Y-5.3998
X13.1386Y-5.2998
X2.2949Y-6.8998
X2.5449Y-6.7998
X8.2011Y-6.1498
X8.4511Y-6.0498
X13.6386Y-3.8998
X13.8886Y-3.7998
X8.0136Y-3.8998
X8.2636Y-3.7998
X15.1386Y-6.5248
X15.3886Y-6.4248
X6.5136Y-3.8998
X6.7636Y-3.7998
X11.6698Y-5.0248
X11.9198Y-4.9248
X12.8886Y-3.8998
X13.1386Y-3.7998
X13.6386Y-6.8998
X13.8886Y-6.7998
X7.6386Y-4.6498
X7.8886Y-4.5498
X13.6386Y-5.3998
X13.8886Y-5.2998
X7.8261Y-5.3998
X8.0761Y-5.2998
X1.5449Y-5.3998
X1.7949Y-5.2998
X7.2636Y-3.8998
X7.5136Y-3.7998
X11.9511Y-6.3373
X12.2011Y-6.2373
X6.7011Y-6.1498
X6.9511Y-6.0498
X9.5136Y-3.8998
X9.7636Y-3.7998
X9.8886Y-4.6498
X10.1386Y-4.5498
X9.3261Y-5.3998
X9.5761Y-5.2998
X10.2636Y-3.8998
X10.5136Y-3.7998
X3.8886Y-4.6498
X4.1386Y-4.5498
X12.8886Y-4.6498
X13.1386Y-4.5498
X5.5761Y-5.3998
X5.8261Y-5.2998
X5.3886Y-4.6498
X5.6386Y-4.5498
X8.5761Y-5.3998
X8.8261Y-5.2998
X1.3574Y-6.8998
X1.6074Y-6.7998
X2.3886Y-4.6498
X2.6386Y-4.5498
X10.8261Y-5.3998
X11.0761Y-5.2998
X9.7011Y-6.1498
X9.9511Y-6.0498
X10.6386Y-4.6498
X10.8886Y-4.5498
X4.6386Y-4.6498
X4.8886Y-4.5498
X1.3574Y-6.1498
X1.6074Y-6.0498
X3.7011Y-6.1498
X3.9511Y-6.0498
X2.0136Y-3.8998
X2.2636Y-3.7998
X1.4511Y-4.6498
X1.7011Y-4.5498
X5.7636Y-3.8998
X6.0136Y-3.7998
X5.0136Y-3.8998
X5.2636Y-3.7998
T2
G00X1.6199Y-3.5656
M15
G01X1.6199Y-3.5892
M16
G05
G00X1.6199Y-3.7203
M15
G01X1.6199Y-3.7636
M16
G05
G00X1.9601Y-3.5656
M15
G01X1.9601Y-3.5892
M16
G05
G00X1.9601Y-3.7203
M15
G01X1.9601Y-3.7636
M16
G05
T0
M30
